<?xml version="1.0" standalone="no"?>
<!DOCTYPE svg PUBLIC "-//W3C//DTD SVG 20010904//EN"
 "http://www.w3.org/TR/2001/REC-SVG-20010904/DTD/svg10.dtd">
<svg version="1.0" xmlns="http://www.w3.org/2000/svg"
 width="100.000000pt" height="100.000000pt" viewBox="0 0 100.000000 100.000000"
 preserveAspectRatio="xMidYMid meet">
<metadata>
Created by potrace 1.10, written by Peter Selinger 2001-2011
</metadata>
<g transform="translate(0.000000,100.000000) scale(0.100000,-0.100000)"
fill="#000000" stroke="none">
<path d="M348 960 c-11 -18 -24 -20 -100 -20 -139 0 -128 38 -128 -450 0 -397
1 -411 20 -430 19 -19 33 -20 360 -20 327 0 341 1 360 20 19 19 20 33 20 430
0 488 11 450 -128 450 -76 0 -89 2 -100 20 -11 18 -23 20 -152 20 -129 0 -141
-2 -152 -20z m270 -67 l-3 -48 -115 0 -115 0 -3 48 -3 47 121 0 121 0 -3 -47z
m-278 -13 c0 -18 -7 -20 -60 -20 l-60 0 0 -360 0 -360 280 0 280 0 0 360 0
360 -60 0 c-54 0 -60 2 -60 20 0 20 5 21 88 18 l87 -3 0 -405 0 -405 -335 0
-335 0 -3 395 c-1 217 0 401 3 407 3 9 31 13 90 13 78 0 85 -2 85 -20z m160
-72 c69 0 151 3 183 7 l57 7 0 -321 0 -321 -240 0 -240 0 0 321 0 321 58 -7
c31 -4 113 -7 182 -7z"/>
<path d="M466 707 c-19 -14 -19 -49 -1 -118 6 -22 2 -29 -29 -47 -58 -34 -46
-42 64 -42 62 0 100 4 100 10 0 6 -16 20 -36 32 -32 19 -35 24 -29 52 18 89
18 93 -6 110 -28 19 -40 20 -63 3z"/>
<path d="M340 400 c0 -19 7 -20 160 -20 153 0 160 1 160 20 0 19 -7 20 -160
20 -153 0 -160 -1 -160 -20z"/>
<path d="M340 300 c0 -19 7 -20 130 -20 123 0 130 1 130 20 0 19 -7 20 -130
20 -123 0 -130 -1 -130 -20z"/>
</g>
</svg>
