<?xml version="1.0" standalone="no"?>
<!DOCTYPE svg PUBLIC "-//W3C//DTD SVG 20010904//EN"
 "http://www.w3.org/TR/2001/REC-SVG-20010904/DTD/svg10.dtd">
<svg version="1.0" xmlns="http://www.w3.org/2000/svg"
 width="100.000000pt" height="100.000000pt" viewBox="0 0 100.000000 100.000000"
 preserveAspectRatio="xMidYMid meet">

<g transform="translate(0.000000,100.000000) scale(0.100000,-0.100000)"
fill="#000000" stroke="none">
<path d="M890 936 c-173 -37 -260 -186 -219 -377 10 -46 9 -56 -10 -89 -12
-21 -21 -50 -21 -66 0 -42 36 -107 70 -127 16 -10 30 -22 30 -26 0 -28 88
-135 145 -175 35 -26 66 -46 69 -46 3 0 6 9 6 20 0 12 -21 35 -55 60 -61 45
-108 103 -125 155 -7 22 -19 35 -36 39 -28 7 -64 60 -64 94 0 31 17 61 52 94
16 15 28 36 28 51 0 55 57 85 163 87 l37 0 0 160 c0 88 -3 160 -7 159 -5 0
-33 -6 -63 -13z"/>
<path d="M594 634 c-6 -3 -26 -63 -45 -134 -28 -108 -37 -130 -52 -130 -13 0
-17 5 -13 18 3 9 17 61 32 116 23 89 24 100 10 114 -26 26 -42 -1 -77 -128
-21 -78 -37 -120 -46 -120 -17 0 -17 1 9 102 18 70 20 90 10 100 -28 28 -46
-7 -94 -178 -26 -93 -47 -186 -47 -207 -1 -46 29 -108 62 -130 38 -24 135 -50
165 -42 29 7 222 144 222 157 0 5 -7 23 -16 39 l-15 30 -34 -25 c-18 -14 -36
-26 -39 -26 -3 0 1 19 8 43 11 38 10 46 -10 81 -13 24 -23 33 -27 25 -3 -10
-8 -11 -16 -4 -8 8 -3 40 18 118 19 72 27 121 24 147 -6 40 -8 43 -29 34z"/>
<path d="M107 613 c-13 -13 -6 -23 34 -50 78 -51 115 -156 89 -250 -10 -36
-28 -62 -73 -106 -41 -41 -56 -62 -49 -69 7 -7 21 -4 44 10 152 94 170 307 36
427 -48 43 -67 52 -81 38z"/>
<path d="M74 535 c-4 -8 8 -27 30 -45 71 -63 73 -158 5 -222 -21 -20 -39 -42
-39 -48 0 -22 41 -8 74 25 79 78 71 212 -16 279 -40 30 -47 31 -54 11z"/>
<path d="M40 459 c0 -6 9 -22 20 -36 11 -14 20 -36 20 -49 0 -13 -9 -33 -20
-44 -23 -23 -26 -50 -6 -50 23 0 66 59 66 91 0 37 -23 84 -45 93 -24 9 -35 7
-35 -5z"/>
<path d="M850 435 c-17 -20 -5 -45 20 -45 11 0 23 7 26 15 6 15 -11 45 -26 45
-4 0 -13 -7 -20 -15z"/>
</g>
</svg>
