<?xml version="1.0" standalone="no"?>
<!DOCTYPE svg PUBLIC "-//W3C//DTD SVG 20010904//EN"
 "http://www.w3.org/TR/2001/REC-SVG-20010904/DTD/svg10.dtd">
<svg version="1.0" xmlns="http://www.w3.org/2000/svg"
 width="100.000000pt" height="100.000000pt" viewBox="0 0 100.000000 100.000000"
 preserveAspectRatio="xMidYMid meet">

<g transform="translate(0.000000,100.000000) scale(0.100000,-0.100000)"
fill="#000000" stroke="none">
<path d="M667 965 c-61 -23 -94 -52 -121 -107 -31 -61 -33 -108 -7 -164 33
-73 133 -134 221 -134 121 0 239 103 240 208 0 71 -51 146 -125 184 -51 27
-156 33 -208 13z m164 -37 c76 -25 129 -91 129 -159 0 -73 -79 -152 -167 -165
-110 -16 -234 70 -233 163 0 36 31 103 58 126 47 42 145 58 213 35z"/>
<path d="M255 701 c-66 -30 -79 -59 -81 -181 -1 -110 1 -117 41 -189 29 -52
32 -92 8 -113 -10 -8 -48 -27 -85 -43 -90 -37 -138 -91 -138 -156 0 -18 10
-19 340 -19 335 0 340 0 340 20 0 31 -24 83 -50 105 -12 11 -59 38 -104 60
-71 35 -81 44 -84 69 -4 28 18 83 47 118 9 12 15 54 18 128 5 134 -4 155 -84
194 -63 30 -112 33 -168 7z m153 -46 c27 -14 53 -32 56 -41 9 -23 7 -95 -3
-132 -6 -20 -6 -32 0 -32 15 0 10 -40 -6 -46 -8 -4 -15 -14 -15 -23 0 -9 -9
-31 -20 -49 -22 -36 -26 -92 -9 -124 6 -11 48 -37 94 -59 46 -21 93 -48 104
-60 45 -48 42 -49 -269 -49 -315 0 -317 0 -264 53 14 14 53 36 86 49 85 32
118 65 118 117 0 23 -9 55 -20 73 -11 18 -20 40 -20 49 0 9 -7 19 -15 23 -16
6 -21 46 -6 46 5 0 5 18 -1 43 -34 149 58 228 190 162z"/>
<path d="M625 515 c-14 -13 -25 -33 -25 -45 0 -32 44 -70 80 -70 36 0 80 38
80 70 0 32 -44 70 -80 70 -19 0 -40 -9 -55 -25z m85 -30 c15 -18 -2 -45 -30
-45 -10 0 -23 7 -30 15 -15 18 2 45 30 45 10 0 23 -7 30 -15z"/>
<path d="M537 382 c-22 -24 -21 -45 1 -65 36 -33 102 -10 102 35 0 42 -73 63
-103 30z m63 -32 c0 -5 -9 -10 -20 -10 -11 0 -20 5 -20 10 0 6 9 10 20 10 11
0 20 -4 20 -10z"/>
</g>
</svg>
