<?xml version="1.0" standalone="no"?>
<!DOCTYPE svg PUBLIC "-//W3C//DTD SVG 20010904//EN"
 "http://www.w3.org/TR/2001/REC-SVG-20010904/DTD/svg10.dtd">
<svg version="1.0" xmlns="http://www.w3.org/2000/svg"
 width="100.000000pt" height="100.000000pt" viewBox="0 0 100.000000 100.000000"
 preserveAspectRatio="xMidYMid meet">

<g transform="translate(0.000000,100.000000) scale(0.100000,-0.100000)"
fill="#000000" stroke="none">
<path d="M456 964 c-3 -8 -6 -114 -6 -234 0 -252 0 -250 81 -250 27 0 49 -4
49 -9 0 -5 -7 -25 -15 -44 -17 -41 -19 -67 -6 -67 5 0 44 27 85 60 l76 60 117
0 c65 0 124 4 131 8 9 7 12 63 10 248 l-3 239 -256 3 c-228 2 -257 1 -263 -14z
m494 -229 l0 -215 -114 0 -114 0 -49 -36 c-26 -20 -54 -41 -60 -46 -10 -8 -10
-4 -2 21 18 52 8 61 -66 61 l-65 0 0 215 0 215 235 0 235 0 0 -215z"/>
<path d="M665 895 c-29 -28 -32 -61 -9 -93 14 -21 14 -22 -6 -22 -11 0 -32
-11 -45 -25 -22 -21 -25 -33 -25 -100 0 -60 -3 -75 -15 -75 -8 0 -15 -7 -15
-15 0 -13 26 -15 170 -15 144 0 170 2 170 15 0 8 -7 15 -15 15 -12 0 -15 15
-15 75 0 67 -3 79 -25 100 -13 14 -33 25 -44 25 -18 0 -19 2 -5 29 40 81 -58
150 -121 86z m89 -26 c15 -22 11 -48 -8 -61 -21 -14 -55 -8 -66 11 -14 27 -13
37 6 55 22 22 50 20 68 -5z m60 -135 c22 -22 23 -154 1 -154 -11 0 -14 12 -12
53 l2 52 -89 3 -89 3 5 -56 c4 -41 1 -55 -9 -55 -10 0 -13 19 -13 75 0 90 5
94 112 95 57 0 81 -4 92 -16z m-38 -96 c-3 -13 -6 -31 -6 -40 0 -15 -9 -18
-49 -18 -42 0 -49 3 -55 23 -14 53 -10 57 55 57 59 0 61 -1 55 -22z"/>
<path d="M707 624 c-8 -8 1 -24 14 -24 5 0 9 7 9 15 0 15 -12 20 -23 9z"/>
<path d="M218 510 c-60 -11 -129 -60 -163 -114 -27 -44 -30 -58 -30 -131 0
-73 3 -87 30 -131 43 -68 108 -107 190 -112 35 -2 79 1 98 7 169 56 225 270
107 405 -53 59 -151 92 -232 76z m32 -75 c0 -45 0 -45 -35 -45 -19 0 -35 2
-35 5 0 24 46 82 68 85 1 0 2 -20 2 -45z m78 5 c30 -44 28 -50 -13 -50 -35 0
-35 0 -35 46 0 54 13 55 48 4z m-169 -14 c-13 -28 -17 -30 -37 -17 -11 6 -7
13 14 30 33 26 39 22 23 -13z m244 6 c13 -12 15 -17 5 -24 -7 -4 -16 -8 -19
-8 -5 0 -29 45 -29 56 0 7 20 -5 43 -24z m-281 -57 c9 -4 12 -19 10 -50 l-4
-45 -39 0 c-44 0 -48 10 -25 65 14 34 29 41 58 30z m343 -25 c8 -16 15 -39 15
-50 0 -18 -5 -21 -37 -18 -36 3 -38 5 -44 45 -4 33 -2 43 10 46 33 9 41 6 56
-23z m-215 -30 l0 -40 -45 0 c-44 0 -45 0 -45 33 0 43 5 47 52 47 38 0 38 0
38 -40z m118 -2 l3 -38 -45 0 -46 0 0 41 0 40 43 -3 c41 -3 42 -4 45 -40z
m-236 -112 c3 -38 0 -46 -17 -50 -33 -9 -35 -8 -51 29 -23 55 -19 65 25 65 39
0 39 0 43 -44z m118 4 c0 -40 0 -40 -39 -40 -41 0 -51 11 -51 56 0 22 4 24 45
24 l45 0 0 -40z m118 3 c-3 -37 -4 -38 -45 -41 l-43 -3 0 40 0 41 46 0 45 0
-3 -37z m112 17 c0 -12 -7 -35 -16 -51 -12 -24 -20 -30 -37 -25 -12 3 -25 6
-28 6 -5 0 -1 53 6 78 3 6 20 12 40 12 29 0 35 -4 35 -20z m-230 -135 c0 -53
-17 -53 -50 0 -27 43 -26 45 15 45 35 0 35 0 35 -45z m100 40 c0 -17 -33 -66
-50 -75 -19 -10 -20 -8 -20 35 0 45 0 45 35 45 19 0 35 -2 35 -5z m-191 -31
c6 -15 10 -28 8 -30 -8 -8 -57 38 -52 47 11 17 32 9 44 -17z m256 17 c5 -9
-44 -55 -52 -47 -2 2 2 15 8 30 12 26 33 34 44 17z"/>
</g>
</svg>
