<?xml version="1.0" standalone="no"?>
<!DOCTYPE svg PUBLIC "-//W3C//DTD SVG 20010904//EN"
 "http://www.w3.org/TR/2001/REC-SVG-20010904/DTD/svg10.dtd">
<svg version="1.0" xmlns="http://www.w3.org/2000/svg"
 width="100.000000pt" height="100.000000pt" viewBox="0 0 100.000000 100.000000"
 preserveAspectRatio="xMidYMid meet">

<g transform="translate(0.000000,100.000000) scale(0.100000,-0.100000)"
fill="#000000" stroke="none">
<path d="M72 854 c-50 -34 -52 -52 -52 -372 l0 -299 24 -22 c21 -20 32 -22
117 -19 l94 3 5 172 5 171 115 -84 c63 -46 117 -84 120 -84 4 0 58 38 121 84
l114 84 5 -172 5 -171 94 -3 c85 -3 96 -1 117 19 l24 22 0 299 c0 320 -2 338
-52 372 -12 9 -39 16 -59 16 -31 0 -61 -18 -200 -120 -90 -66 -169 -118 -175
-116 -6 2 -82 56 -168 120 -134 98 -164 116 -195 116 -20 0 -47 -7 -59 -16z
m115 -46 l33 -23 0 -102 c0 -57 -2 -103 -5 -103 -3 0 -39 25 -80 55 -73 54
-75 57 -75 99 0 86 59 120 127 74z m732 -4 c14 -18 21 -41 21 -70 0 -43 -2
-45 -74 -99 -41 -30 -77 -55 -80 -55 -4 0 -6 46 -6 103 l0 102 33 23 c43 30
80 29 106 -4z m-536 -143 c54 -40 104 -74 110 -77 10 -3 147 89 235 159 9 7
12 -13 12 -96 l0 -105 -112 -83 c-62 -46 -120 -83 -128 -83 -8 0 -66 38 -127
83 l-113 83 0 105 c0 83 3 103 13 96 6 -6 56 -43 110 -82z m-163 -309 l0 -173
-77 3 -78 3 -3 227 -2 228 79 -58 80 -57 1 -173z m716 -159 c-4 -9 -29 -13
-81 -13 l-75 0 1 173 0 172 77 56 77 55 3 -215 c1 -119 0 -221 -2 -228z"/>
</g>
</svg>
