<?xml version="1.0" standalone="no"?>
<!DOCTYPE svg PUBLIC "-//W3C//DTD SVG 20010904//EN"
 "http://www.w3.org/TR/2001/REC-SVG-20010904/DTD/svg10.dtd">
<svg version="1.0" xmlns="http://www.w3.org/2000/svg"
 width="100.000000pt" height="100.000000pt" viewBox="0 0 100.000000 100.000000"
 preserveAspectRatio="xMidYMid meet">

<g transform="translate(0.000000,100.000000) scale(0.100000,-0.100000)"
fill="#000000" stroke="none">
<path d="M352 969 c-70 -13 -148 -54 -195 -101 -117 -118 -151 -339 -74 -487
94 -181 90 -169 95 -267 4 -83 7 -94 23 -94 17 0 19 8 19 74 0 92 -23 169 -78
260 -48 80 -67 156 -59 246 11 132 74 238 173 292 135 73 349 59 462 -30 47
-38 95 -126 113 -207 8 -35 33 -94 61 -142 26 -44 48 -84 48 -87 0 -3 -22 -17
-50 -31 l-50 -25 0 -78 c0 -60 -5 -84 -20 -110 -28 -45 -80 -66 -147 -58 l-53
6 0 -55 c0 -48 2 -55 20 -55 16 0 20 7 20 30 0 29 2 30 43 30 107 0 177 79
177 200 l0 66 45 22 c66 32 67 53 7 156 -29 48 -55 108 -62 139 -24 117 -99
225 -188 271 -77 40 -227 56 -330 35z"/>
<path d="M540 820 c0 -25 -27 -37 -50 -22 -24 15 -43 -4 -28 -28 15 -23 3 -50
-22 -50 -13 0 -20 -7 -20 -20 0 -13 7 -20 20 -20 25 0 37 -27 22 -50 -15 -24
4 -43 28 -28 23 15 50 3 50 -22 0 -13 7 -20 20 -20 13 0 20 7 20 20 0 25 27
37 50 22 24 -15 43 4 28 28 -15 23 -3 50 22 50 13 0 20 7 20 20 0 13 -7 20
-20 20 -25 0 -37 27 -22 50 15 24 -4 43 -28 28 -23 -15 -50 -3 -50 22 0 13 -7
20 -20 20 -13 0 -20 -7 -20 -20z m60 -80 c11 -11 20 -29 20 -40 0 -26 -34 -60
-60 -60 -26 0 -60 34 -60 60 0 11 9 29 20 40 11 11 29 20 40 20 11 0 29 -9 40
-20z"/>
<path d="M300 660 c0 -25 -27 -37 -50 -22 -24 15 -43 -4 -28 -28 15 -23 3 -50
-22 -50 -13 0 -20 -7 -20 -20 0 -13 7 -20 20 -20 25 0 37 -27 22 -50 -15 -24
4 -43 28 -28 23 15 50 3 50 -22 0 -13 7 -20 20 -20 13 0 20 7 20 20 0 25 27
37 50 22 24 -15 43 4 28 28 -15 23 -3 50 22 50 13 0 20 7 20 20 0 13 -7 20
-20 20 -25 0 -37 27 -22 50 15 24 -4 43 -28 28 -23 -15 -50 -3 -50 22 0 13 -7
20 -20 20 -13 0 -20 -7 -20 -20z m60 -80 c11 -11 20 -29 20 -40 0 -26 -34 -60
-60 -60 -26 0 -60 34 -60 60 0 11 9 29 20 40 11 11 29 20 40 20 11 0 29 -9 40
-20z"/>
</g>
</svg>
