<?xml version="1.0" standalone="no"?>
<!DOCTYPE svg PUBLIC "-//W3C//DTD SVG 20010904//EN"
 "http://www.w3.org/TR/2001/REC-SVG-20010904/DTD/svg10.dtd">
<svg version="1.0" xmlns="http://www.w3.org/2000/svg"
 width="100.000000pt" height="100.000000pt" viewBox="0 0 100.000000 100.000000"
 preserveAspectRatio="xMidYMid meet">

<g transform="translate(0.000000,100.000000) scale(0.100000,-0.100000)"
fill="#000000" stroke="none">
<path d="M352 989 c-70 -13 -148 -54 -195 -101 -117 -118 -151 -339 -74 -487
96 -185 90 -168 95 -278 4 -92 7 -103 23 -103 17 0 19 9 19 84 0 103 -21 176
-78 270 -48 80 -67 156 -59 246 11 132 74 238 173 292 135 73 349 59 462 -30
47 -38 95 -126 113 -207 8 -35 33 -94 61 -142 26 -44 48 -84 48 -87 0 -3 -22
-17 -50 -31 l-50 -25 0 -78 c0 -60 -5 -84 -20 -110 -28 -45 -80 -66 -147 -58
l-53 6 0 -65 c0 -58 2 -65 20 -65 17 0 20 7 20 40 l0 40 43 0 c107 0 177 79
177 200 l0 66 45 22 c66 32 67 53 7 156 -29 48 -55 108 -62 139 -24 117 -99
225 -188 271 -77 40 -227 56 -330 35z"/>
<path d="M495 881 c-77 -35 -123 -116 -111 -197 5 -43 5 -44 -22 -44 -36 -1
-102 -32 -129 -61 -91 -99 -56 -251 69 -304 130 -54 274 60 254 201 -5 42 -4
44 20 44 13 0 41 7 62 15 160 67 160 283 0 350 -49 20 -94 19 -143 -4z m145
-41 c45 -23 80 -80 80 -130 0 -78 -74 -150 -153 -150 -38 0 -110 50 -133 92
-33 58 -4 145 62 184 48 29 92 30 144 4z m-200 -260 c45 -23 80 -80 80 -130 0
-76 -74 -150 -150 -150 -76 0 -150 74 -150 150 0 48 35 107 78 129 48 26 93
26 142 1z"/>
<path d="M484 786 c-10 -26 4 -48 28 -44 17 2 23 10 23 28 0 18 -6 26 -23 28
-13 2 -25 -3 -28 -12z"/>
<path d="M604 786 c-10 -26 4 -48 28 -44 17 2 23 10 23 28 0 18 -6 26 -23 28
-13 2 -25 -3 -28 -12z"/>
<path d="M484 678 c-13 -20 43 -58 86 -58 47 0 103 41 83 60 -9 10 -17 9 -34
-4 -29 -20 -69 -21 -95 -1 -23 18 -31 18 -40 3z"/>
<path d="M284 526 c-10 -26 4 -48 28 -44 33 4 33 52 0 56 -13 2 -25 -3 -28
-12z"/>
<path d="M404 526 c-10 -26 4 -48 28 -44 33 4 33 52 0 56 -13 2 -25 -3 -28
-12z"/>
<path d="M313 411 c-35 -22 -44 -51 -15 -51 9 0 26 7 36 15 25 19 60 19 76 0
15 -19 50 -20 50 -2 0 47 -95 71 -147 38z"/>
</g>
</svg>
