<svg xmlns="http://www.w3.org/2000/svg" xmlns:xlink="http://www.w3.org/1999/xlink" width="200" zoomAndPan="magnify" viewBox="0 0 150 74.999997" height="100" preserveAspectRatio="xMidYMid meet" version="1.0"><defs><g/><clipPath id="d399e5d207"><path d="M 32 10.652344 L 40 10.652344 L 40 21 L 32 21 Z M 32 10.652344 " clip-rule="nonzero"/></clipPath><clipPath id="255bb4e399"><path d="M 8 10.652344 L 16 10.652344 L 16 21 L 8 21 Z M 8 10.652344 " clip-rule="nonzero"/></clipPath><clipPath id="b97bf8a49e"><path d="M 4.914062 17 L 16 17 L 16 46 L 4.914062 46 Z M 4.914062 17 " clip-rule="nonzero"/></clipPath><clipPath id="4b6c18b2b4"><path d="M 32 17 L 43.164062 17 L 43.164062 46 L 32 46 Z M 32 17 " clip-rule="nonzero"/></clipPath><clipPath id="061307bedf"><path d="M 15 32 L 33 32 L 33 48.902344 L 15 48.902344 Z M 15 32 " clip-rule="nonzero"/></clipPath><clipPath id="48beb221b9"><path d="M 43 45 L 51.679688 45 L 51.679688 58 L 43 58 Z M 43 45 " clip-rule="nonzero"/></clipPath><clipPath id="056b12e382"><path d="M 30 38.621094 L 44 38.621094 L 44 64 L 30 64 Z M 30 38.621094 " clip-rule="nonzero"/></clipPath></defs><g clip-path="url(#d399e5d207)"><path fill="#000000" d="M 37.867188 13.597656 C 37.871094 13.511719 37.847656 13.5 37.792969 13.566406 C 36.648438 14.972656 34.949219 15.894531 33.195312 16.175781 C 32.84375 16.230469 32.511719 16.148438 32.199219 15.925781 C 32.175781 15.910156 32.175781 15.894531 32.199219 15.878906 C 34.5 14.382812 36.628906 12.78125 38.347656 10.691406 C 38.367188 10.664062 38.386719 10.667969 38.402344 10.691406 C 38.871094 11.390625 39.167969 12.320312 39.324219 13.097656 C 39.640625 14.703125 39.628906 16.308594 39.285156 17.910156 C 39.0625 18.953125 38.664062 19.925781 38.101562 20.828125 C 38.070312 20.875 38.035156 20.878906 37.996094 20.839844 C 37.132812 20 36.21875 19.214844 35.261719 18.484375 C 35.21875 18.453125 35.21875 18.421875 35.261719 18.390625 C 36.332031 17.660156 37.0625 16.722656 37.457031 15.578125 C 37.683594 14.910156 37.820312 14.25 37.867188 13.597656 Z M 37.867188 13.597656 " fill-opacity="1" fill-rule="nonzero"/></g><g clip-path="url(#255bb4e399)"><path fill="#000000" d="M 9.648438 10.726562 C 10.894531 12.175781 12.332031 13.449219 13.902344 14.542969 C 14.558594 15 15.214844 15.464844 15.871094 15.929688 C 15.898438 15.949219 15.894531 15.960938 15.871094 15.976562 C 15.292969 16.292969 14.789062 16.1875 14.140625 16.023438 C 12.558594 15.625 11.234375 14.8125 10.160156 13.585938 C 10.148438 13.570312 10.128906 13.566406 10.109375 13.574219 C 10.089844 13.585938 10.082031 13.601562 10.085938 13.621094 C 10.25 14.796875 10.597656 16.0625 11.257812 16.980469 C 11.621094 17.484375 12.144531 17.960938 12.832031 18.40625 C 12.859375 18.425781 12.859375 18.445312 12.832031 18.464844 C 11.828125 19.191406 10.875 19.980469 9.976562 20.832031 C 9.945312 20.859375 9.921875 20.859375 9.898438 20.824219 C 8.847656 19.175781 8.460938 17.421875 8.414062 15.484375 C 8.371094 13.832031 8.71875 12.167969 9.554688 10.734375 C 9.582031 10.6875 9.613281 10.683594 9.648438 10.726562 Z M 9.648438 10.726562 " fill-opacity="1" fill-rule="nonzero"/></g><path fill="#000000" d="M 15.425781 14.917969 C 15.390625 14.894531 15.390625 14.871094 15.421875 14.847656 C 16.949219 13.796875 18.617188 13.050781 20.429688 12.617188 C 24.664062 11.601562 29.0625 12.382812 32.667969 14.863281 C 32.691406 14.878906 32.691406 14.898438 32.667969 14.914062 C 32.328125 15.144531 31.964844 15.332031 31.585938 15.476562 C 31.5625 15.488281 31.539062 15.488281 31.515625 15.476562 C 29.675781 14.710938 27.683594 14.179688 25.695312 14.023438 C 25.421875 14 25.148438 13.945312 24.886719 13.945312 C 24.101562 13.941406 23.351562 13.933594 22.570312 14.003906 C 20.511719 14.183594 18.527344 14.667969 16.621094 15.460938 C 16.382812 15.5625 15.65625 15.066406 15.425781 14.917969 Z M 15.425781 14.917969 " fill-opacity="1" fill-rule="nonzero"/><path fill="#000000" d="M 21.84375 15.3125 C 21.460938 15.734375 21.035156 16.089844 20.6875 16.332031 C 19.125 17.417969 16.894531 17.1875 15.070312 17.171875 C 15.0625 17.171875 15.054688 17.167969 15.050781 17.160156 C 15.050781 17.148438 15.050781 17.140625 15.058594 17.136719 C 15.109375 17.105469 15.164062 17.09375 15.222656 17.101562 C 15.234375 17.101562 15.246094 17.101562 15.261719 17.097656 C 17.398438 16.316406 19.582031 15.707031 21.816406 15.261719 C 21.828125 15.261719 21.839844 15.265625 21.847656 15.277344 C 21.855469 15.292969 21.851562 15.304688 21.84375 15.3125 Z M 21.84375 15.3125 " fill-opacity="1" fill-rule="nonzero"/><path fill="#000000" d="M 32.988281 17.113281 C 33.003906 17.117188 33.015625 17.117188 33.019531 17.121094 C 33.039062 17.121094 33.046875 17.132812 33.046875 17.148438 C 33.042969 17.167969 33.035156 17.175781 33.015625 17.175781 C 32.105469 17.175781 31.195312 17.175781 30.285156 17.175781 C 30.152344 17.175781 29.992188 17.164062 29.796875 17.136719 C 29.582031 17.109375 29.34375 17.109375 29.144531 17.066406 C 27.984375 16.804688 27.023438 16.210938 26.261719 15.28125 C 26.253906 15.265625 26.253906 15.257812 26.273438 15.253906 C 26.292969 15.25 26.308594 15.257812 26.324219 15.277344 C 26.339844 15.300781 26.363281 15.3125 26.390625 15.320312 C 28.789062 15.78125 30.792969 16.445312 32.988281 17.113281 Z M 32.988281 17.113281 " fill-opacity="1" fill-rule="nonzero"/><path fill="#000000" d="M 23.363281 15.839844 C 21.496094 18.535156 18.804688 20.492188 15.742188 21.625 C 14.675781 22.019531 13.847656 22.359375 13.261719 22.648438 C 12.796875 22.871094 12.425781 23.191406 12.148438 23.605469 C 12.140625 23.613281 12.132812 23.617188 12.121094 23.613281 C 12.109375 23.605469 12.105469 23.597656 12.109375 23.585938 C 12.253906 23.148438 12.453125 22.765625 12.75 22.390625 C 14.371094 20.34375 16.757812 19.257812 19.066406 18.199219 C 20.558594 17.515625 21.976562 16.714844 23.324219 15.796875 C 23.335938 15.785156 23.351562 15.789062 23.363281 15.800781 C 23.375 15.8125 23.375 15.824219 23.363281 15.839844 Z M 23.363281 15.839844 " fill-opacity="1" fill-rule="nonzero"/><path fill="#000000" d="M 34.480469 21.453125 C 35.160156 22.042969 35.640625 22.757812 35.925781 23.601562 C 35.929688 23.613281 35.925781 23.621094 35.914062 23.628906 C 35.902344 23.632812 35.890625 23.628906 35.886719 23.617188 C 35.53125 23.019531 34.976562 22.675781 34.347656 22.433594 C 33.074219 21.9375 32.195312 21.589844 31.710938 21.390625 C 28.882812 20.21875 26.410156 18.34375 24.613281 15.851562 C 24.601562 15.835938 24.605469 15.820312 24.617188 15.804688 C 24.632812 15.792969 24.648438 15.792969 24.664062 15.804688 C 27.773438 18.007812 31.585938 18.925781 34.480469 21.453125 Z M 34.480469 21.453125 " fill-opacity="1" fill-rule="nonzero"/><g clip-path="url(#b97bf8a49e)"><path fill="#000000" d="M 7.015625 30.246094 C 7.019531 30.234375 7.011719 30.226562 7 30.222656 C 6.992188 30.214844 6.980469 30.21875 6.972656 30.226562 C 6.058594 31.363281 5.445312 32.683594 4.988281 34.074219 C 4.9375 34.242188 4.910156 34.238281 4.910156 34.0625 C 4.910156 30.640625 5.878906 27.46875 7.816406 24.550781 C 9.753906 21.632812 12.386719 19.515625 15.417969 17.890625 C 15.433594 17.886719 15.441406 17.886719 15.449219 17.898438 C 15.457031 17.910156 15.457031 17.921875 15.445312 17.929688 C 15.042969 18.308594 14.664062 18.703125 14.308594 19.117188 C 12.542969 21.171875 11.191406 23.527344 10.253906 26.179688 C 9.90625 27.160156 9.671875 28.066406 9.542969 28.898438 C 9.335938 30.238281 9.347656 31.679688 9.710938 32.980469 C 10.351562 35.28125 12.164062 37.042969 14.191406 38.195312 C 14.253906 38.230469 14.277344 38.28125 14.261719 38.351562 C 13.660156 40.808594 14.101562 43.464844 15.289062 45.691406 C 15.304688 45.722656 15.296875 45.726562 15.269531 45.707031 C 12.46875 43.96875 9.980469 41.121094 9.488281 37.734375 C 9.375 36.960938 9.34375 36.1875 9.394531 35.417969 C 9.398438 35.390625 9.386719 35.371094 9.367188 35.355469 C 9.34375 35.339844 9.320312 35.339844 9.296875 35.347656 C 7.964844 35.929688 7.113281 37.078125 6.699219 38.445312 C 6.695312 38.460938 6.683594 38.46875 6.667969 38.46875 C 6.652344 38.46875 6.644531 38.460938 6.640625 38.445312 C 6.605469 38.292969 6.601562 38.128906 6.570312 37.984375 C 6.03125 35.441406 6.171875 33.003906 6.9375 30.578125 C 6.972656 30.464844 7 30.355469 7.015625 30.246094 Z M 7.015625 30.246094 " fill-opacity="1" fill-rule="nonzero"/></g><g clip-path="url(#4b6c18b2b4)"><path fill="#000000" d="M 32.78125 45.617188 C 33.992188 43.300781 34.324219 40.855469 33.777344 38.277344 C 33.773438 38.25 33.78125 38.226562 33.804688 38.210938 C 34.6875 37.609375 35.453125 37.109375 36.285156 36.28125 C 38.648438 33.933594 39.078125 30.664062 38.214844 27.546875 C 37.238281 24.035156 35.332031 20.492188 32.640625 17.984375 C 32.632812 17.976562 32.632812 17.96875 32.636719 17.960938 C 32.644531 17.953125 32.652344 17.953125 32.660156 17.957031 C 36.695312 20.085938 40 23.191406 41.792969 27.4375 C 42.703125 29.597656 43.148438 31.851562 43.125 34.203125 C 43.128906 34.21875 43.121094 34.226562 43.109375 34.226562 C 43.09375 34.230469 43.085938 34.222656 43.082031 34.210938 C 42.644531 32.78125 41.972656 31.417969 41.023438 30.265625 C 41.007812 30.25 40.992188 30.246094 40.972656 30.257812 C 40.957031 30.265625 40.949219 30.28125 40.957031 30.300781 C 41.855469 32.972656 41.988281 35.679688 41.34375 38.433594 C 41.339844 38.449219 41.332031 38.453125 41.320312 38.457031 C 41.308594 38.457031 41.300781 38.453125 41.292969 38.441406 C 41.269531 38.390625 41.257812 38.335938 41.261719 38.277344 C 41.261719 38.253906 41.257812 38.234375 41.25 38.210938 C 40.804688 36.964844 39.957031 35.859375 38.699219 35.382812 C 38.648438 35.363281 38.621094 35.378906 38.621094 35.4375 C 38.652344 36.769531 38.539062 38.070312 38.117188 39.316406 C 37.296875 41.722656 35.585938 43.683594 33.558594 45.140625 C 33.285156 45.339844 33.015625 45.535156 32.746094 45.734375 C 32.730469 45.746094 32.722656 45.742188 32.714844 45.726562 C 32.710938 45.703125 32.71875 45.683594 32.742188 45.664062 C 32.757812 45.652344 32.773438 45.636719 32.78125 45.617188 Z M 32.78125 45.617188 " fill-opacity="1" fill-rule="nonzero"/></g><path fill="#000000" d="M 24.480469 18.867188 C 27.230469 20.140625 29.707031 21.636719 32.160156 23.269531 C 32.183594 23.285156 32.179688 23.292969 32.152344 23.289062 C 32.011719 23.273438 31.835938 23.246094 31.617188 23.207031 C 29.050781 22.722656 26.597656 21.925781 24.328125 20.644531 C 24.117188 20.523438 24.109375 20.378906 23.839844 20.539062 C 21.355469 21.984375 18.695312 22.777344 15.890625 23.304688 C 15.878906 23.304688 15.875 23.300781 15.867188 23.292969 C 15.863281 23.28125 15.867188 23.273438 15.875 23.265625 C 18.429688 21.542969 21.121094 19.878906 23.964844 18.675781 C 23.988281 18.664062 24.015625 18.664062 24.039062 18.671875 C 24.148438 18.714844 24.292969 18.777344 24.480469 18.867188 Z M 24.480469 18.867188 " fill-opacity="1" fill-rule="nonzero"/><path fill="#000000" d="M 24.050781 21.902344 C 25.566406 22.964844 27.277344 23.738281 29.109375 23.726562 C 29.132812 23.726562 29.148438 23.738281 29.160156 23.757812 C 29.171875 23.777344 29.171875 23.796875 29.160156 23.816406 C 28.832031 24.34375 28.34375 24.84375 27.78125 25.085938 C 26.515625 25.621094 24.96875 24.71875 24.089844 23.855469 C 24.035156 23.800781 23.980469 23.800781 23.925781 23.859375 C 23.046875 24.726562 21.445312 25.660156 20.207031 25.0625 C 19.640625 24.789062 19.210938 24.378906 18.914062 23.828125 C 18.890625 23.777344 18.902344 23.75 18.957031 23.746094 C 19.414062 23.699219 19.832031 23.703125 20.300781 23.589844 C 20.847656 23.457031 21.230469 23.347656 21.457031 23.261719 C 22.359375 22.917969 23.203125 22.464844 23.988281 21.902344 C 24.007812 21.886719 24.03125 21.886719 24.050781 21.902344 Z M 24.050781 21.902344 " fill-opacity="1" fill-rule="nonzero"/><path fill="#000000" d="M 20.628906 27.847656 C 20.683594 27.878906 20.707031 27.921875 20.707031 27.980469 C 20.722656 29.65625 20.335938 31.121094 19.820312 32.699219 C 19.796875 32.773438 19.777344 32.773438 19.761719 32.691406 C 19.757812 32.667969 19.761719 32.625 19.773438 32.558594 C 19.945312 31.570312 19.921875 30.40625 19.078125 29.730469 C 18.738281 29.460938 18.28125 29.359375 17.835938 29.238281 C 16.46875 28.859375 15.558594 27.824219 15.03125 26.554688 C 14.570312 25.457031 14.28125 24.261719 13.117188 23.691406 C 13.101562 23.683594 13.097656 23.667969 13.101562 23.652344 C 13.105469 23.632812 13.121094 23.625 13.140625 23.625 C 14.164062 23.789062 15.035156 24.300781 15.738281 25.03125 C 15.871094 25.171875 15.957031 25.203125 16.160156 25.164062 C 17.019531 24.988281 17.820312 25.050781 18.511719 25.601562 C 19.34375 26.261719 19.636719 27.300781 20.628906 27.847656 Z M 19.308594 27.578125 C 18.417969 27.015625 17.449219 26.484375 16.40625 25.980469 C 16.367188 25.960938 16.335938 25.972656 16.3125 26.011719 C 16.179688 26.265625 16.300781 26.765625 16.417969 27.027344 C 16.792969 27.875 17.449219 28.035156 18.3125 27.882812 C 18.660156 27.820312 19.003906 27.75 19.339844 27.675781 C 19.386719 27.664062 19.394531 27.640625 19.363281 27.605469 C 19.359375 27.597656 19.351562 27.59375 19.339844 27.589844 C 19.324219 27.582031 19.316406 27.578125 19.308594 27.578125 Z M 19.308594 27.578125 " fill-opacity="1" fill-rule="nonzero"/><path fill="#000000" d="M 28.484375 30.347656 C 28.132812 31.003906 28.210938 31.992188 28.316406 32.847656 C 28.316406 32.855469 28.3125 32.859375 28.304688 32.859375 C 28.296875 32.863281 28.289062 32.859375 28.285156 32.851562 C 27.867188 31.765625 27.523438 30.585938 27.417969 29.417969 C 27.382812 29 27.285156 28.371094 27.371094 27.9375 C 27.375 27.910156 27.390625 27.890625 27.414062 27.878906 C 28.101562 27.523438 28.414062 26.984375 28.953125 26.234375 C 29.636719 25.289062 30.554688 24.921875 31.714844 25.128906 C 31.886719 25.160156 32.011719 25.183594 32.089844 25.195312 C 32.117188 25.195312 32.140625 25.1875 32.15625 25.167969 C 32.933594 24.367188 33.703125 23.808594 34.851562 23.628906 C 34.871094 23.621094 34.886719 23.632812 34.894531 23.652344 C 34.902344 23.671875 34.894531 23.6875 34.875 23.699219 C 33.597656 24.328125 33.289062 25.917969 32.707031 27.074219 C 32.167969 28.148438 31.265625 28.929688 30.109375 29.257812 C 29.40625 29.457031 28.855469 29.65625 28.484375 30.347656 Z M 31.601562 25.972656 C 30.617188 26.457031 29.660156 26.988281 28.726562 27.566406 C 28.710938 27.578125 28.703125 27.59375 28.707031 27.613281 C 28.710938 27.628906 28.71875 27.644531 28.738281 27.648438 C 28.941406 27.710938 29.148438 27.757812 29.359375 27.796875 C 29.46875 27.816406 29.546875 27.871094 29.664062 27.882812 C 29.789062 27.894531 29.863281 27.90625 29.894531 27.914062 C 30.652344 28.085938 31.273438 27.746094 31.589844 27.070312 C 31.695312 26.835938 31.855469 26.238281 31.71875 26.007812 C 31.691406 25.960938 31.652344 25.949219 31.601562 25.972656 Z M 31.601562 25.972656 " fill-opacity="1" fill-rule="nonzero"/><path fill="#000000" d="M 17.242188 30.242188 C 17.453125 30.285156 17.59375 30.328125 17.78125 30.34375 C 17.796875 30.34375 17.804688 30.351562 17.808594 30.367188 C 17.8125 30.382812 17.804688 30.390625 17.792969 30.398438 C 17.226562 30.664062 16.53125 30.8125 16.105469 30.890625 C 14.835938 31.121094 14.003906 30.648438 13.617188 29.476562 C 13.292969 28.484375 13.535156 27.253906 13.878906 26.273438 C 13.882812 26.257812 13.890625 26.253906 13.90625 26.253906 C 13.917969 26.257812 13.925781 26.265625 13.925781 26.28125 C 14.003906 27.769531 14.574219 29.0625 15.960938 29.765625 C 16.425781 30.003906 16.855469 30.164062 17.242188 30.242188 Z M 17.242188 30.242188 " fill-opacity="1" fill-rule="nonzero"/><path fill="#000000" d="M 30.246094 30.429688 C 30.226562 30.421875 30.210938 30.410156 30.199219 30.394531 C 30.179688 30.371094 30.1875 30.355469 30.21875 30.351562 C 32.457031 29.976562 34.027344 28.734375 34.035156 26.300781 C 34.03125 26.273438 34.042969 26.261719 34.066406 26.257812 C 34.089844 26.253906 34.105469 26.261719 34.113281 26.285156 C 34.523438 27.347656 34.679688 28.363281 34.40625 29.460938 C 33.882812 31.542969 31.628906 30.945312 30.246094 30.429688 Z M 30.246094 30.429688 " fill-opacity="1" fill-rule="nonzero"/><path fill="#000000" d="M 13.078125 34.589844 C 12.3125 34.101562 11.796875 33.339844 11.621094 32.457031 C 11.167969 30.21875 12.132812 28.011719 13.496094 26.300781 C 13.5 26.296875 13.503906 26.296875 13.507812 26.296875 C 13.515625 26.300781 13.523438 26.304688 13.523438 26.3125 C 13.523438 26.3125 13.523438 26.316406 13.519531 26.320312 C 12.582031 28.039062 12.132812 30.792969 13.582031 32.394531 C 13.957031 32.808594 14.480469 32.972656 15.019531 32.804688 C 15.40625 32.683594 15.796875 32.554688 16.183594 32.414062 C 16.199219 32.40625 16.214844 32.410156 16.222656 32.425781 C 16.230469 32.441406 16.226562 32.453125 16.214844 32.464844 C 14.882812 33.539062 13.996094 34.714844 13.644531 36.40625 C 13.640625 36.433594 13.625 36.441406 13.601562 36.441406 C 13.578125 36.441406 13.5625 36.425781 13.5625 36.402344 C 13.519531 35.90625 13.472656 35.414062 13.414062 34.917969 C 13.386719 34.695312 13.222656 34.683594 13.078125 34.589844 Z M 13.078125 34.589844 " fill-opacity="1" fill-rule="nonzero"/><path fill="#000000" d="M 34.347656 36.441406 C 34.03125 34.753906 33.152344 33.546875 31.816406 32.488281 C 31.808594 32.480469 31.804688 32.472656 31.808594 32.460938 C 31.8125 32.449219 31.820312 32.445312 31.832031 32.441406 C 31.839844 32.441406 31.851562 32.441406 31.867188 32.4375 C 31.878906 32.4375 31.890625 32.441406 31.902344 32.445312 C 32.527344 32.695312 32.960938 32.839844 33.195312 32.882812 C 34.128906 33.054688 34.929688 31.925781 35.164062 31.148438 C 35.628906 29.601562 35.273438 27.78125 34.511719 26.386719 C 34.507812 26.378906 34.511719 26.375 34.515625 26.367188 C 34.523438 26.363281 34.53125 26.363281 34.535156 26.371094 C 36.054688 28.160156 37.136719 31.023438 36.058594 33.304688 C 35.832031 33.789062 35.441406 34.265625 35.003906 34.53125 C 34.835938 34.632812 34.714844 34.710938 34.632812 34.773438 C 34.613281 34.789062 34.601562 34.808594 34.597656 34.835938 L 34.402344 36.4375 C 34.402344 36.453125 34.394531 36.460938 34.378906 36.460938 C 34.359375 36.464844 34.351562 36.457031 34.347656 36.441406 Z M 34.347656 36.441406 " fill-opacity="1" fill-rule="nonzero"/><g clip-path="url(#061307bedf)"><path fill="#000000" d="M 24.570312 48.898438 L 23.566406 48.898438 C 20.597656 48.554688 18.617188 46.292969 18.242188 43.402344 C 18.238281 43.375 18.222656 43.359375 18.199219 43.347656 C 16.652344 42.621094 15.742188 41.433594 15.472656 39.792969 C 15.007812 36.988281 16.199219 34.550781 18.359375 32.824219 C 18.371094 32.816406 18.378906 32.816406 18.390625 32.824219 C 18.402344 32.832031 18.402344 32.84375 18.398438 32.855469 C 18.234375 33.195312 18.054688 33.570312 17.945312 33.871094 C 17.054688 36.339844 17.679688 39.164062 20.554688 39.863281 C 21.039062 39.980469 21.507812 40.039062 21.964844 40.042969 C 22.050781 40.042969 22.054688 40.058594 21.972656 40.089844 C 20.335938 40.714844 18.15625 40.640625 17.207031 38.898438 C 17.199219 38.886719 17.191406 38.882812 17.175781 38.886719 C 17.160156 38.890625 17.15625 38.898438 17.15625 38.914062 C 17.320312 40.085938 18.101562 41.113281 19.195312 41.539062 C 20.53125 42.058594 22.222656 41.632812 23.425781 40.894531 C 23.488281 40.855469 23.5 40.804688 23.460938 40.738281 C 23.113281 40.214844 22.742188 39.683594 22.222656 39.300781 C 21.757812 38.953125 21.128906 38.472656 20.332031 37.855469 C 20.210938 37.761719 20.132812 37.667969 20.089844 37.570312 C 19.796875 36.910156 19.453125 36.273438 19.054688 35.660156 C 19.039062 35.640625 19.042969 35.621094 19.066406 35.601562 C 19.085938 35.585938 19.105469 35.585938 19.125 35.605469 C 19.152344 35.632812 19.1875 35.652344 19.238281 35.664062 C 20.589844 35.980469 21.9375 36.296875 23.285156 36.613281 C 23.53125 36.671875 23.960938 36.777344 24.285156 36.710938 C 25.839844 36.382812 27.398438 35.984375 28.933594 35.585938 C 28.945312 35.585938 28.953125 35.589844 28.957031 35.597656 C 28.964844 35.605469 28.964844 35.613281 28.960938 35.621094 C 28.582031 36.253906 28.246094 36.910156 27.945312 37.589844 C 27.902344 37.683594 27.839844 37.765625 27.757812 37.828125 C 27.140625 38.296875 26.519531 38.765625 25.894531 39.230469 C 25.308594 39.671875 24.917969 40.128906 24.570312 40.730469 C 24.527344 40.800781 24.542969 40.855469 24.609375 40.898438 C 26.925781 42.332031 30.234375 42.179688 30.894531 38.949219 C 30.898438 38.921875 30.886719 38.90625 30.863281 38.894531 C 30.835938 38.886719 30.816406 38.890625 30.800781 38.914062 C 29.867188 40.570312 27.671875 40.761719 26.054688 40.082031 C 26.03125 40.070312 26.03125 40.066406 26.054688 40.0625 C 26.699219 39.964844 27.203125 39.957031 27.894531 39.71875 C 30.914062 38.675781 30.925781 35.21875 29.582031 32.859375 C 29.574219 32.847656 29.578125 32.835938 29.585938 32.828125 C 29.597656 32.816406 29.609375 32.816406 29.621094 32.824219 C 30.648438 33.628906 31.582031 34.707031 32.105469 35.890625 C 33.261719 38.5 32.738281 41.96875 29.925781 43.316406 C 29.875 43.339844 29.839844 43.40625 29.824219 43.507812 C 29.347656 46.378906 27.558594 48.464844 24.570312 48.898438 Z M 28.820312 43.613281 C 27.121094 43.832031 25.417969 43.367188 24.042969 42.375 C 24.03125 42.367188 24.019531 42.367188 24.003906 42.375 C 22.6875 43.285156 21.246094 43.714844 19.679688 43.660156 C 19.535156 43.652344 19.445312 43.644531 19.402344 43.632812 C 19.214844 43.566406 19.167969 43.621094 19.265625 43.796875 C 20.234375 45.527344 21.949219 46.574219 23.9375 46.609375 C 26.152344 46.652344 27.804688 45.582031 28.867188 43.683594 C 28.878906 43.667969 28.878906 43.652344 28.867188 43.632812 C 28.855469 43.617188 28.839844 43.609375 28.820312 43.613281 Z M 28.820312 43.613281 " fill-opacity="1" fill-rule="nonzero"/></g><path fill="#000000" d="M 28.84375 49.359375 C 29.722656 48.441406 30.46875 47.425781 31.332031 46.5 C 31.652344 46.15625 31.175781 45.707031 30.820312 45.992188 C 29.824219 46.792969 28.746094 47.472656 27.761719 48.289062 C 26.761719 49.117188 25.777344 50.117188 24.660156 50.785156 C 23.964844 51.203125 23.960938 52.207031 24.660156 52.625 C 26.652344 53.808594 28.488281 55.191406 30.144531 56.808594 C 31.28125 57.917969 33.0625 56.144531 31.894531 55.082031 C 30.339844 53.664062 28.660156 52.417969 26.835938 51.378906 C 27.476562 50.675781 28.207031 50.019531 28.84375 49.359375 Z M 28.84375 49.359375 " fill-opacity="1" fill-rule="nonzero"/><g clip-path="url(#48beb221b9)"><path fill="#000000" d="M 45.460938 56.808594 C 47.117188 55.191406 48.953125 53.808594 50.945312 52.625 C 51.644531 52.207031 51.640625 51.203125 50.945312 50.785156 C 49.828125 50.117188 48.84375 49.117188 47.847656 48.289062 C 46.859375 47.472656 45.78125 46.792969 44.789062 45.992188 C 44.433594 45.707031 43.953125 46.15625 44.277344 46.5 C 45.136719 47.421875 45.886719 48.441406 46.761719 49.359375 C 47.398438 50.019531 48.132812 50.675781 48.769531 51.375 C 46.949219 52.417969 45.265625 53.664062 43.714844 55.078125 C 42.542969 56.144531 44.324219 57.917969 45.460938 56.808594 Z M 45.460938 56.808594 " fill-opacity="1" fill-rule="nonzero"/></g><g clip-path="url(#056b12e382)"><path fill="#000000" d="M 33.257812 62.527344 C 33.269531 62.476562 35.671875 57.121094 36.527344 55.214844 C 38.460938 50.914062 40.394531 46.609375 42.328125 42.308594 C 42.773438 41.3125 43.214844 40.34375 43.539062 39.300781 C 43.679688 38.84375 43.035156 38.613281 42.785156 38.984375 C 41.171875 41.410156 40.023438 44.1875 38.722656 46.78125 C 36.605469 50.988281 34.5 55.203125 32.40625 59.421875 C 32.066406 60.117188 31.0625 62.003906 30.992188 62.277344 C 30.871094 62.761719 30.582031 63.367188 31.414062 63.742188 C 32.113281 64.109375 33 63.507812 33.257812 62.527344 Z M 33.257812 62.527344 " fill-opacity="1" fill-rule="nonzero"/></g><g fill="#000000" fill-opacity="1"><g transform="translate(44.992087, 35.291015)"><g><path d="M 1.296875 -0.609375 L 1.28125 -7 L 1.25 -7.328125 L 1.21875 -7.703125 L 1.28125 -8.328125 L 1.25 -8.671875 L 1.28125 -9 L 1.28125 -11.375 L 1.4375 -11.75 L 1.78125 -11.890625 L 2.109375 -11.9375 L 2.796875 -11.875 L 3.140625 -11.9375 L 3.796875 -11.9375 L 4.140625 -11.734375 L 4.3125 -11.359375 L 4.296875 -11.03125 L 4.34375 -10.0625 L 4.3125 -9.390625 L 4.34375 -8.96875 L 4.328125 -3.203125 L 4.46875 -2.859375 L 4.796875 -2.71875 L 5.15625 -2.765625 L 5.828125 -2.71875 L 6.125 -2.78125 L 6.46875 -2.703125 L 7.171875 -2.71875 L 7.53125 -2.671875 L 7.84375 -2.734375 L 8.203125 -2.78125 L 8.515625 -2.578125 L 8.671875 -2.0625 L 8.6875 -0.6875 L 8.5 -0.15625 L 8.171875 0.015625 L 4.796875 0 L 4.421875 0.03125 L 4.109375 -0.015625 L 3.453125 0.015625 L 2.796875 -0.015625 L 2.078125 0.03125 L 1.734375 0 L 1.40625 -0.171875 Z M 1.296875 -0.609375 "/></g></g></g><g fill="#000000" fill-opacity="1"><g transform="translate(54.152818, 35.291015)"><g><path d="M 1.25 -0.5 L 1.21875 -5.609375 L 1.265625 -6 L 1.21875 -6.3125 L 1.25 -6.640625 L 1.28125 -6.953125 L 1.25 -7.34375 L 1.28125 -7.640625 L 1.265625 -8 L 1.21875 -8.296875 L 1.296875 -10.203125 L 1.25 -10.71875 L 1.296875 -11.40625 L 1.390625 -11.71875 L 1.765625 -11.90625 L 2.25 -11.890625 L 2.609375 -11.921875 L 3.46875 -11.921875 L 3.78125 -11.890625 L 4.4375 -11.890625 L 4.96875 -11.921875 L 5.3125 -11.90625 L 5.828125 -11.9375 L 6.125 -11.90625 L 6.796875 -11.9375 L 7.171875 -11.890625 L 8.1875 -11.90625 L 8.484375 -11.71875 L 8.6875 -11.203125 L 8.65625 -10.5625 L 8.6875 -9.6875 L 8.515625 -9.34375 L 8.171875 -9.1875 L 6.875 -9.21875 L 6.515625 -9.1875 L 6.1875 -9.203125 L 5.875 -9.1875 L 5.375 -9.21875 L 4.84375 -9.21875 L 4.515625 -9 L 4.34375 -8.65625 L 4.375 -7.890625 L 4.34375 -7.5625 L 4.34375 -7.078125 L 4.53125 -6.734375 L 4.875 -6.59375 L 5.25 -6.609375 L 5.90625 -6.515625 L 6.8125 -6.59375 L 7.640625 -6.5625 L 8 -6.421875 L 8.171875 -6.078125 L 8.1875 -4.5625 L 8.015625 -4.03125 L 7.65625 -3.859375 L 6.96875 -3.828125 L 6.625 -3.859375 L 6.265625 -3.84375 L 5.921875 -3.890625 L 5.59375 -3.8125 L 5.234375 -3.890625 L 4.859375 -3.84375 L 4.515625 -3.703125 L 4.359375 -3.359375 L 4.375 -1.546875 L 4.34375 -1.21875 L 4.390625 -0.6875 L 4.1875 -0.171875 L 3.828125 -0.015625 L 2.984375 0.046875 L 1.78125 0 L 1.40625 -0.171875 Z M 1.25 -0.5 "/></g></g></g><g fill="#000000" fill-opacity="1"><g transform="translate(63.43274, 35.291015)"><g><path d="M 5.921875 0.046875 L 5.59375 0.015625 L 5.25 0.046875 L 4.859375 0.03125 L 4.53125 -0.03125 L 3.828125 0.015625 L 3.53125 0 L 3.15625 0.03125 L 1.921875 0.015625 L 1.40625 -0.203125 L 1.28125 -0.671875 L 1.25 -1.03125 L 1.296875 -2.21875 L 1.25 -2.546875 L 1.28125 -2.875 L 1.296875 -5.640625 L 1.25 -5.9375 L 1.265625 -7.34375 L 1.296875 -7.65625 L 1.25 -8.015625 L 1.28125 -9.6875 L 1.21875 -10.0625 L 1.28125 -10.765625 L 1.25 -11.40625 L 1.4375 -11.765625 L 1.78125 -11.90625 L 2.125 -11.890625 L 2.46875 -11.921875 L 2.78125 -11.890625 L 3.09375 -11.953125 L 3.4375 -11.90625 L 4.84375 -11.9375 L 5.171875 -11.90625 L 5.46875 -11.921875 L 5.8125 -11.890625 L 6.1875 -11.921875 L 7.5625 -11.9375 L 7.875 -11.875 L 8.21875 -11.875 L 8.5625 -11.734375 L 8.71875 -11.40625 L 8.75 -10.390625 L 8.734375 -10.046875 L 8.75 -9.703125 L 8.578125 -9.40625 L 8.21875 -9.203125 L 7.90625 -9.1875 L 5.46875 -9.21875 L 5.140625 -9.140625 L 4.8125 -9.15625 L 4.4375 -9.03125 L 4.296875 -8.703125 L 4.296875 -8.171875 L 4.421875 -7.640625 L 4.78125 -7.5 L 5.78125 -7.53125 L 6.484375 -7.484375 L 6.84375 -7.515625 L 7.84375 -7.515625 L 8.25 -7.296875 L 8.40625 -6.8125 L 8.359375 -5.28125 L 8.25 -4.9375 L 7.90625 -4.796875 L 7.515625 -4.8125 L 7.171875 -4.78125 L 6.46875 -4.796875 L 5.828125 -4.765625 L 5.28125 -4.8125 L 4.765625 -4.796875 L 4.46875 -4.609375 L 4.3125 -4.25 L 4.3125 -3.1875 L 4.4375 -2.875 L 4.796875 -2.703125 L 5.171875 -2.734375 L 5.5 -2.6875 L 5.875 -2.703125 L 6.21875 -2.671875 L 6.78125 -2.734375 L 7.640625 -2.71875 L 7.96875 -2.671875 L 8.359375 -2.703125 L 8.71875 -2.546875 L 8.90625 -2.21875 L 8.90625 -0.5 L 8.71875 -0.140625 L 8.359375 0.015625 Z M 5.921875 0.046875 "/></g></g></g><g fill="#000000" fill-opacity="1"><g transform="translate(73.189422, 35.291015)"><g><path d="M 1.28125 -0.703125 L 1.28125 -3.21875 L 1.25 -3.5625 L 1.265625 -4.9375 L 1.296875 -5.265625 L 1.265625 -5.59375 L 1.265625 -5.921875 L 1.25 -6.296875 L 1.296875 -6.984375 L 1.265625 -7.328125 L 1.25 -11.21875 L 1.453125 -11.703125 L 1.75 -11.875 L 2.765625 -11.953125 L 3.140625 -11.9375 L 3.46875 -11.875 L 3.8125 -11.875 L 4.125 -11.953125 L 4.46875 -11.953125 L 4.796875 -11.890625 L 5.828125 -11.890625 L 6.3125 -11.921875 L 6.859375 -11.90625 L 7.828125 -11.6875 L 8.484375 -11.46875 L 9.078125 -11.140625 L 10.046875 -10.109375 L 10.234375 -9.84375 L 10.375 -9.546875 L 10.671875 -8.578125 L 10.734375 -8.25 L 10.765625 -7.171875 L 10.546875 -6.1875 L 9.875 -4.984375 L 9.640625 -4.78125 L 9.40625 -4.53125 L 9.25 -4.15625 L 9.265625 -3.75 L 9.46875 -3.484375 L 10.015625 -2.609375 L 10.171875 -2.296875 L 10.75 -1.4375 L 10.890625 -1.109375 L 11.09375 -0.875 L 11.28125 -0.5 L 11.171875 -0.125 L 10.84375 0.03125 L 10.28125 0.046875 L 9.96875 0.015625 L 8.625 0.03125 L 8.03125 -0.125 L 7.65625 -0.421875 L 7.484375 -0.71875 L 7.34375 -1.0625 L 7.15625 -1.3125 L 6.828125 -1.921875 L 6.46875 -2.4375 L 6.328125 -2.734375 L 6.125 -3.078125 L 5.796875 -3.375 L 4.796875 -3.515625 L 4.484375 -3.328125 L 4.328125 -2.984375 L 4.296875 -1.890625 L 4.34375 -1.53125 L 4.3125 -1.21875 L 4.3125 -0.640625 L 4.15625 -0.15625 L 3.609375 0.015625 L 3.09375 0.015625 L 2.828125 0.046875 L 2.28125 0 L 1.9375 0.046875 L 1.453125 -0.171875 Z M 4.796875 -6.234375 L 5.171875 -6.265625 L 6 -6.234375 L 6.3125 -6.25 L 6.8125 -6.375 L 7.125 -6.5 L 7.3125 -6.65625 L 7.5 -6.921875 L 7.640625 -7.25 L 7.703125 -7.765625 L 7.625 -8.203125 L 7.53125 -8.484375 L 7.109375 -9.015625 L 6.78125 -9.09375 L 6.328125 -9.125 L 5.859375 -9.234375 L 5.171875 -9.15625 L 4.84375 -9.1875 L 4.484375 -9.046875 L 4.328125 -8.71875 L 4.296875 -8 L 4.328125 -7.71875 L 4.328125 -6.6875 L 4.46875 -6.421875 Z M 4.796875 -6.234375 "/></g></g></g><g fill="#000000" fill-opacity="1"><g transform="translate(85.006419, 35.291015)"><g><path d="M 10.046875 -0.296875 L 9.796875 -0.515625 L 9.34375 -1 L 6.703125 -3.625 L 6.421875 -3.8125 L 6.203125 -4.078125 L 4.984375 -5.234375 L 4.765625 -5.515625 L 4.546875 -5.609375 L 4.421875 -5.3125 L 4.390625 -4.96875 L 4.375 -0.671875 L 4.203125 -0.140625 L 3.859375 0.03125 L 3.515625 0.046875 L 2.84375 0 L 2.46875 0.03125 L 1.765625 0 L 1.40625 -0.125 L 1.265625 -0.4375 L 1.21875 -1.875 L 1.265625 -2.203125 L 1.21875 -4.984375 L 1.28125 -5.28125 L 1.25 -5.984375 L 1.265625 -6.265625 L 1.265625 -11.421875 L 1.40625 -11.75 L 1.8125 -11.921875 L 2.3125 -11.796875 L 2.703125 -11.59375 L 2.96875 -11.390625 L 6.3125 -8 L 6.796875 -7.625 L 8 -6.421875 L 8.265625 -6.296875 L 8.359375 -6.59375 L 8.390625 -9.640625 L 8.359375 -10.015625 L 8.40625 -10.734375 L 8.359375 -11 L 8.375 -11.359375 L 8.5625 -11.71875 L 8.890625 -11.90625 L 11 -11.921875 L 11.34375 -11.734375 L 11.515625 -11.390625 L 11.5625 -9.03125 L 11.515625 -8.625 L 11.515625 -6.9375 L 11.5625 -6.640625 L 11.53125 -0.421875 L 11.359375 -0.078125 L 10.984375 0.03125 L 10.515625 -0.015625 Z M 10.046875 -0.296875 "/></g></g></g><g fill="#000000" fill-opacity="1"><g transform="translate(97.845064, 35.291015)"><g><path d="M 10.046875 0.03125 L 9.6875 0 L 9.296875 -0.171875 L 8.953125 -0.421875 L 8.859375 -0.734375 L 8.703125 -1.0625 L 8.375 -1.328125 L 8 -1.515625 L 7.625 -1.46875 L 7.328125 -1.5 L 5.65625 -1.484375 L 5.34375 -1.53125 L 4.625 -1.46875 L 4.3125 -1.515625 L 3.953125 -1.328125 L 3.625 -1 L 3.328125 -0.4375 L 3 -0.140625 L 2.609375 -0.015625 L 1.65625 0.015625 L 1.3125 -0.015625 L 0.640625 0.015625 L 0.3125 -0.078125 L 0.21875 -0.515625 L 0.328125 -0.84375 L 0.671875 -1.53125 L 0.75 -1.84375 L 0.9375 -2.078125 L 1.1875 -2.765625 L 1.5 -3.296875 L 1.625 -3.640625 L 1.78125 -3.90625 L 1.890625 -4.28125 L 3.625 -7.921875 L 3.734375 -8.21875 L 3.921875 -8.546875 L 4 -8.890625 L 4.1875 -9.140625 L 4.875 -10.71875 L 5.03125 -10.953125 L 5.140625 -11.296875 L 5.296875 -11.578125 L 5.609375 -11.875 L 6.140625 -12.0625 L 6.703125 -11.890625 L 7 -11.578125 L 7.328125 -10.984375 L 7.421875 -10.671875 L 7.609375 -10.375 L 7.71875 -10.03125 L 8.84375 -7.65625 L 8.953125 -7.3125 L 9.3125 -6.671875 L 9.421875 -6.40625 L 9.578125 -6.140625 L 9.671875 -5.78125 L 9.84375 -5.453125 L 10.015625 -5.1875 L 10.65625 -3.640625 L 11 -3.03125 L 11.234375 -2.40625 L 11.703125 -1.515625 L 11.953125 -0.890625 L 12.078125 -0.5 L 12.03125 -0.078125 L 11.546875 0 L 11.015625 0.015625 L 10.703125 -0.015625 Z M 6.1875 -4.203125 L 6.859375 -4.21875 L 7.125 -4.359375 L 7.1875 -4.671875 L 6.390625 -6.546875 L 6.140625 -6.671875 L 5.953125 -6.515625 L 5.15625 -4.6875 L 5.171875 -4.359375 L 5.453125 -4.234375 L 5.84375 -4.28125 Z M 6.1875 -4.203125 "/></g></g></g><g fill="#000000" fill-opacity="1"><g transform="translate(110.206937, 35.291015)"><g><path d="M 10.046875 -0.296875 L 9.796875 -0.515625 L 9.34375 -1 L 6.703125 -3.625 L 6.421875 -3.8125 L 6.203125 -4.078125 L 4.984375 -5.234375 L 4.765625 -5.515625 L 4.546875 -5.609375 L 4.421875 -5.3125 L 4.390625 -4.96875 L 4.375 -0.671875 L 4.203125 -0.140625 L 3.859375 0.03125 L 3.515625 0.046875 L 2.84375 0 L 2.46875 0.03125 L 1.765625 0 L 1.40625 -0.125 L 1.265625 -0.4375 L 1.21875 -1.875 L 1.265625 -2.203125 L 1.21875 -4.984375 L 1.28125 -5.28125 L 1.25 -5.984375 L 1.265625 -6.265625 L 1.265625 -11.421875 L 1.40625 -11.75 L 1.8125 -11.921875 L 2.3125 -11.796875 L 2.703125 -11.59375 L 2.96875 -11.390625 L 6.3125 -8 L 6.796875 -7.625 L 8 -6.421875 L 8.265625 -6.296875 L 8.359375 -6.59375 L 8.390625 -9.640625 L 8.359375 -10.015625 L 8.40625 -10.734375 L 8.359375 -11 L 8.375 -11.359375 L 8.5625 -11.71875 L 8.890625 -11.90625 L 11 -11.921875 L 11.34375 -11.734375 L 11.515625 -11.390625 L 11.5625 -9.03125 L 11.515625 -8.625 L 11.515625 -6.9375 L 11.5625 -6.640625 L 11.53125 -0.421875 L 11.359375 -0.078125 L 10.984375 0.03125 L 10.515625 -0.015625 Z M 10.046875 -0.296875 "/></g></g></g><g fill="#000000" fill-opacity="1"><g transform="translate(123.045582, 35.291015)"><g><path d="M 5.25 0.046875 L 4.546875 -0.015625 L 4.203125 0.03125 L 2.125 0 L 1.78125 0.03125 L 1.453125 -0.140625 L 1.28125 -0.671875 L 1.28125 -1.53125 L 1.25 -1.859375 L 1.265625 -11.375 L 1.40625 -11.734375 L 1.78125 -11.890625 L 2.125 -11.875 L 2.4375 -11.921875 L 6.3125 -11.890625 L 7.328125 -11.734375 L 7.6875 -11.65625 L 7.96875 -11.515625 L 8.3125 -11.4375 L 8.640625 -11.25 L 9.5 -10.671875 L 10.40625 -9.671875 L 10.984375 -8.765625 L 11.125 -8.453125 L 11.34375 -7.796875 L 11.578125 -6.453125 L 11.59375 -5.953125 L 11.546875 -5.421875 L 11.546875 -5.0625 L 11.5 -4.71875 L 11.390625 -4.421875 L 11.328125 -4.078125 L 11.234375 -3.75 L 10.96875 -3.078125 L 10.765625 -2.8125 L 10.59375 -2.46875 L 9.765625 -1.390625 L 8.625 -0.625 L 7.8125 -0.296875 L 7.125 -0.171875 L 6.625 -0.015625 L 6.28125 -0.015625 L 5.75 0.046875 Z M 5.1875 -2.734375 L 5.703125 -2.765625 L 6.4375 -2.84375 L 6.9375 -3 L 7.515625 -3.375 L 8.140625 -4.09375 L 8.4375 -4.71875 L 8.59375 -5.90625 L 8.328125 -7.40625 L 8.171875 -7.71875 L 8 -8 L 7.75 -8.3125 L 7.5 -8.546875 L 7.234375 -8.734375 L 6.9375 -8.890625 L 6.265625 -9.078125 L 5.78125 -9.125 L 5.0625 -9.109375 L 4.515625 -9 L 4.34375 -8.59375 L 4.3125 -8.3125 L 4.34375 -5.953125 L 4.28125 -5.109375 L 4.34375 -4.28125 L 4.328125 -3.578125 L 4.34375 -3.28125 L 4.484375 -2.96875 L 4.875 -2.78125 Z M 5.1875 -2.734375 "/></g></g></g><g fill="#000000" fill-opacity="1"><g transform="translate(135.424483, 35.291015)"><g><path d="M 6.828125 0.21875 L 5.8125 0.171875 L 4.359375 -0.25 L 4.03125 -0.390625 L 2.875 -1 L 2.65625 -1.265625 L 2.1875 -1.71875 L 1.375 -2.8125 L 1.203125 -3.109375 L 1.109375 -3.46875 L 0.84375 -4.046875 L 0.671875 -5.125 L 0.734375 -7.109375 L 0.875 -7.828125 L 1.1875 -8.765625 L 1.34375 -9.0625 L 1.921875 -9.90625 L 2.390625 -10.421875 L 2.921875 -10.796875 L 3.171875 -11 L 4.03125 -11.546875 L 4.6875 -11.71875 L 4.984375 -11.859375 L 5.328125 -11.953125 L 5.671875 -12.03125 L 6.859375 -12.09375 L 7.65625 -12.078125 L 9.890625 -11.375 L 10.765625 -10.828125 L 11.5 -10.171875 L 11.71875 -9.859375 L 11.921875 -9.65625 L 12.140625 -9.359375 L 12.265625 -9.0625 L 12.5625 -8.5 L 12.65625 -8.109375 L 12.796875 -7.75 L 12.921875 -7.125 L 13.015625 -5.9375 L 12.921875 -4.75 L 12.859375 -4.375 L 12.75 -4.109375 L 12.703125 -3.765625 L 12.59375 -3.4375 L 11.921875 -2.265625 L 11.703125 -1.953125 L 10.515625 -0.8125 L 9 -0.140625 L 8.34375 0.0625 Z M 6.359375 -2.78125 L 7.34375 -2.8125 L 7.65625 -2.890625 L 7.96875 -2.921875 L 8.25 -3.078125 L 8.546875 -3.21875 L 9.078125 -3.625 L 9.28125 -3.9375 L 9.4375 -4.1875 L 9.625 -4.4375 L 9.78125 -5.140625 L 9.875 -6 L 9.8125 -6.734375 L 9.6875 -7.03125 L 9.59375 -7.375 L 9.453125 -7.6875 L 9.0625 -8.265625 L 8.53125 -8.65625 L 7.625 -9.046875 L 6.8125 -9.09375 L 6.03125 -9.03125 L 5.671875 -8.9375 L 5.359375 -8.78125 L 4.875 -8.453125 L 4.609375 -8.21875 L 4.390625 -7.953125 L 4.234375 -7.65625 L 4.03125 -7.421875 L 3.9375 -7.125 L 3.8125 -6.484375 L 3.796875 -5.984375 L 3.890625 -5.125 L 4.203125 -4.171875 L 4.421875 -3.9375 L 4.59375 -3.703125 L 5.125 -3.234375 L 5.703125 -2.921875 L 6.015625 -2.890625 Z M 6.359375 -2.78125 "/></g></g></g><g fill="#737373" fill-opacity="1"><g transform="translate(53.032631, 45.494701)"><g><path d="M 1.828125 0 L 0.6875 0 L 0.6875 -5.453125 L 3.8125 -5.453125 L 3.8125 -4.5 L 1.828125 -4.5 L 1.828125 -3.09375 L 3.671875 -3.09375 L 3.671875 -2.15625 L 1.828125 -2.15625 Z M 1.828125 0 "/></g></g><g transform="translate(57.224283, 45.494701)"><g><path d="M 1.84375 -3.03125 L 2.21875 -3.03125 C 2.582031 -3.03125 2.847656 -3.09375 3.015625 -3.21875 C 3.191406 -3.34375 3.28125 -3.535156 3.28125 -3.796875 C 3.28125 -4.046875 3.191406 -4.222656 3.015625 -4.328125 C 2.835938 -4.441406 2.5625 -4.5 2.1875 -4.5 L 1.84375 -4.5 Z M 1.84375 -2.09375 L 1.84375 0 L 0.6875 0 L 0.6875 -5.453125 L 2.28125 -5.453125 C 3.019531 -5.453125 3.566406 -5.316406 3.921875 -5.046875 C 4.273438 -4.773438 4.453125 -4.367188 4.453125 -3.828125 C 4.453125 -3.503906 4.363281 -3.21875 4.1875 -2.96875 C 4.007812 -2.71875 3.757812 -2.519531 3.4375 -2.375 C 4.257812 -1.144531 4.796875 -0.351562 5.046875 0 L 3.765625 0 L 2.453125 -2.09375 Z M 1.84375 -2.09375 "/></g></g><g transform="translate(62.2662, 45.494701)"><g><path d="M 5.640625 -2.734375 C 5.640625 -1.828125 5.414062 -1.128906 4.96875 -0.640625 C 4.519531 -0.160156 3.878906 0.078125 3.046875 0.078125 C 2.203125 0.078125 1.554688 -0.160156 1.109375 -0.640625 C 0.660156 -1.128906 0.4375 -1.828125 0.4375 -2.734375 C 0.4375 -3.648438 0.660156 -4.347656 1.109375 -4.828125 C 1.566406 -5.304688 2.210938 -5.546875 3.046875 -5.546875 C 3.890625 -5.546875 4.53125 -5.300781 4.96875 -4.8125 C 5.414062 -4.332031 5.640625 -3.640625 5.640625 -2.734375 Z M 1.65625 -2.734375 C 1.65625 -2.128906 1.769531 -1.671875 2 -1.359375 C 2.226562 -1.046875 2.578125 -0.890625 3.046875 -0.890625 C 3.960938 -0.890625 4.421875 -1.503906 4.421875 -2.734375 C 4.421875 -3.960938 3.960938 -4.578125 3.046875 -4.578125 C 2.585938 -4.578125 2.238281 -4.421875 2 -4.109375 C 1.769531 -3.804688 1.65625 -3.347656 1.65625 -2.734375 Z M 1.65625 -2.734375 "/></g></g><g transform="translate(68.344842, 45.494701)"><g><path d="M 5.53125 0 L 4.0625 0 L 1.6875 -4.125 L 1.65625 -4.125 C 1.695312 -3.394531 1.71875 -2.875 1.71875 -2.5625 L 1.71875 0 L 0.6875 0 L 0.6875 -5.453125 L 2.140625 -5.453125 L 4.515625 -1.375 L 4.546875 -1.375 C 4.503906 -2.082031 4.484375 -2.582031 4.484375 -2.875 L 4.484375 -5.453125 L 5.53125 -5.453125 Z M 5.53125 0 "/></g></g><g transform="translate(74.554006, 45.494701)"><g><path d="M 2.796875 0 L 1.640625 0 L 1.640625 -4.484375 L 0.15625 -4.484375 L 0.15625 -5.453125 L 4.265625 -5.453125 L 4.265625 -4.484375 L 2.796875 -4.484375 Z M 2.796875 0 "/></g></g><g transform="translate(78.976871, 45.494701)"><g/></g><g transform="translate(80.96082, 45.494701)"><g><path d="M 3.828125 0 L 0.6875 0 L 0.6875 -5.453125 L 3.828125 -5.453125 L 3.828125 -4.5 L 1.84375 -4.5 L 1.84375 -3.3125 L 3.6875 -3.3125 L 3.6875 -2.359375 L 1.84375 -2.359375 L 1.84375 -0.953125 L 3.828125 -0.953125 Z M 3.828125 0 "/></g></g><g transform="translate(85.238245, 45.494701)"><g><path d="M 5.53125 0 L 4.0625 0 L 1.6875 -4.125 L 1.65625 -4.125 C 1.695312 -3.394531 1.71875 -2.875 1.71875 -2.5625 L 1.71875 0 L 0.6875 0 L 0.6875 -5.453125 L 2.140625 -5.453125 L 4.515625 -1.375 L 4.546875 -1.375 C 4.503906 -2.082031 4.484375 -2.582031 4.484375 -2.875 L 4.484375 -5.453125 L 5.53125 -5.453125 Z M 5.53125 0 "/></g></g><g transform="translate(91.44741, 45.494701)"><g><path d="M 5.21875 -2.78125 C 5.21875 -1.882812 4.957031 -1.195312 4.4375 -0.71875 C 3.925781 -0.238281 3.191406 0 2.234375 0 L 0.6875 0 L 0.6875 -5.453125 L 2.40625 -5.453125 C 3.289062 -5.453125 3.976562 -5.21875 4.46875 -4.75 C 4.96875 -4.28125 5.21875 -3.625 5.21875 -2.78125 Z M 4.015625 -2.75 C 4.015625 -3.914062 3.492188 -4.5 2.453125 -4.5 L 1.84375 -4.5 L 1.84375 -0.953125 L 2.34375 -0.953125 C 3.457031 -0.953125 4.015625 -1.550781 4.015625 -2.75 Z M 4.015625 -2.75 "/></g></g></g><g fill="#737373" fill-opacity="1"><g transform="translate(53.032631, 55.67798)"><g><path d="M 5.21875 -2.78125 C 5.21875 -1.882812 4.957031 -1.195312 4.4375 -0.71875 C 3.925781 -0.238281 3.191406 0 2.234375 0 L 0.6875 0 L 0.6875 -5.453125 L 2.40625 -5.453125 C 3.289062 -5.453125 3.976562 -5.21875 4.46875 -4.75 C 4.96875 -4.28125 5.21875 -3.625 5.21875 -2.78125 Z M 4.015625 -2.75 C 4.015625 -3.914062 3.492188 -4.5 2.453125 -4.5 L 1.84375 -4.5 L 1.84375 -0.953125 L 2.34375 -0.953125 C 3.457031 -0.953125 4.015625 -1.550781 4.015625 -2.75 Z M 4.015625 -2.75 "/></g></g><g transform="translate(58.686141, 55.67798)"><g><path d="M 3.828125 0 L 0.6875 0 L 0.6875 -5.453125 L 3.828125 -5.453125 L 3.828125 -4.5 L 1.84375 -4.5 L 1.84375 -3.3125 L 3.6875 -3.3125 L 3.6875 -2.359375 L 1.84375 -2.359375 L 1.84375 -0.953125 L 3.828125 -0.953125 Z M 3.828125 0 "/></g></g><g transform="translate(62.963565, 55.67798)"><g><path d="M 3.796875 -5.453125 L 4.96875 -5.453125 L 3.109375 0 L 1.84375 0 L 0 -5.453125 L 1.171875 -5.453125 L 2.1875 -2.203125 C 2.25 -2.015625 2.3125 -1.789062 2.375 -1.53125 C 2.4375 -1.28125 2.472656 -1.101562 2.484375 -1 C 2.515625 -1.226562 2.609375 -1.628906 2.765625 -2.203125 Z M 3.796875 -5.453125 "/></g></g><g transform="translate(67.927168, 55.67798)"><g><path d="M 3.828125 0 L 0.6875 0 L 0.6875 -5.453125 L 3.828125 -5.453125 L 3.828125 -4.5 L 1.84375 -4.5 L 1.84375 -3.3125 L 3.6875 -3.3125 L 3.6875 -2.359375 L 1.84375 -2.359375 L 1.84375 -0.953125 L 3.828125 -0.953125 Z M 3.828125 0 "/></g></g><g transform="translate(72.204593, 55.67798)"><g><path d="M 0.6875 0 L 0.6875 -5.453125 L 1.84375 -5.453125 L 1.84375 -0.953125 L 4.0625 -0.953125 L 4.0625 0 Z M 0.6875 0 "/></g></g><g transform="translate(76.51931, 55.67798)"><g><path d="M 5.640625 -2.734375 C 5.640625 -1.828125 5.414062 -1.128906 4.96875 -0.640625 C 4.519531 -0.160156 3.878906 0.078125 3.046875 0.078125 C 2.203125 0.078125 1.554688 -0.160156 1.109375 -0.640625 C 0.660156 -1.128906 0.4375 -1.828125 0.4375 -2.734375 C 0.4375 -3.648438 0.660156 -4.347656 1.109375 -4.828125 C 1.566406 -5.304688 2.210938 -5.546875 3.046875 -5.546875 C 3.890625 -5.546875 4.53125 -5.300781 4.96875 -4.8125 C 5.414062 -4.332031 5.640625 -3.640625 5.640625 -2.734375 Z M 1.65625 -2.734375 C 1.65625 -2.128906 1.769531 -1.671875 2 -1.359375 C 2.226562 -1.046875 2.578125 -0.890625 3.046875 -0.890625 C 3.960938 -0.890625 4.421875 -1.503906 4.421875 -2.734375 C 4.421875 -3.960938 3.960938 -4.578125 3.046875 -4.578125 C 2.585938 -4.578125 2.238281 -4.421875 2 -4.109375 C 1.769531 -3.804688 1.65625 -3.347656 1.65625 -2.734375 Z M 1.65625 -2.734375 "/></g></g><g transform="translate(82.597952, 55.67798)"><g><path d="M 1.84375 -2.890625 L 2.21875 -2.890625 C 2.570312 -2.890625 2.835938 -2.957031 3.015625 -3.09375 C 3.191406 -3.238281 3.28125 -3.445312 3.28125 -3.71875 C 3.28125 -3.988281 3.207031 -4.1875 3.0625 -4.3125 C 2.914062 -4.4375 2.6875 -4.5 2.375 -4.5 L 1.84375 -4.5 Z M 4.453125 -3.75 C 4.453125 -3.164062 4.269531 -2.71875 3.90625 -2.40625 C 3.539062 -2.09375 3.019531 -1.9375 2.34375 -1.9375 L 1.84375 -1.9375 L 1.84375 0 L 0.6875 0 L 0.6875 -5.453125 L 2.421875 -5.453125 C 3.085938 -5.453125 3.59375 -5.304688 3.9375 -5.015625 C 4.28125 -4.734375 4.453125 -4.3125 4.453125 -3.75 Z M 4.453125 -3.75 "/></g></g><g transform="translate(87.393739, 55.67798)"><g><path d="M 3.828125 0 L 0.6875 0 L 0.6875 -5.453125 L 3.828125 -5.453125 L 3.828125 -4.5 L 1.84375 -4.5 L 1.84375 -3.3125 L 3.6875 -3.3125 L 3.6875 -2.359375 L 1.84375 -2.359375 L 1.84375 -0.953125 L 3.828125 -0.953125 Z M 3.828125 0 "/></g></g><g transform="translate(91.671164, 55.67798)"><g><path d="M 1.84375 -3.03125 L 2.21875 -3.03125 C 2.582031 -3.03125 2.847656 -3.09375 3.015625 -3.21875 C 3.191406 -3.34375 3.28125 -3.535156 3.28125 -3.796875 C 3.28125 -4.046875 3.191406 -4.222656 3.015625 -4.328125 C 2.835938 -4.441406 2.5625 -4.5 2.1875 -4.5 L 1.84375 -4.5 Z M 1.84375 -2.09375 L 1.84375 0 L 0.6875 0 L 0.6875 -5.453125 L 2.28125 -5.453125 C 3.019531 -5.453125 3.566406 -5.316406 3.921875 -5.046875 C 4.273438 -4.773438 4.453125 -4.367188 4.453125 -3.828125 C 4.453125 -3.503906 4.363281 -3.21875 4.1875 -2.96875 C 4.007812 -2.71875 3.757812 -2.519531 3.4375 -2.375 C 4.257812 -1.144531 4.796875 -0.351562 5.046875 0 L 3.765625 0 L 2.453125 -2.09375 Z M 1.84375 -2.09375 "/></g></g></g></svg>