<svg xmlns="http://www.w3.org/2000/svg" xmlns:xlink="http://www.w3.org/1999/xlink" width="200" zoomAndPan="magnify" viewBox="0 0 150 74.999997" height="100" preserveAspectRatio="xMidYMid meet" version="1.0"><defs><g/><clipPath id="674a95c499"><path d="M 31 10.613281 L 40 10.613281 L 40 21 L 31 21 Z M 31 10.613281 " clip-rule="nonzero"/></clipPath><clipPath id="6330915513"><path d="M 8 10.613281 L 16 10.613281 L 16 21 L 8 21 Z M 8 10.613281 " clip-rule="nonzero"/></clipPath><clipPath id="757126e82c"><path d="M 4.8125 17 L 16 17 L 16 46 L 4.8125 46 Z M 4.8125 17 " clip-rule="nonzero"/></clipPath><clipPath id="51c2c6464a"><path d="M 15 32 L 33 32 L 33 48.863281 L 15 48.863281 Z M 15 32 " clip-rule="nonzero"/></clipPath><clipPath id="f40b37e094"><path d="M 43 45 L 51.605469 45 L 51.605469 58 L 43 58 Z M 43 45 " clip-rule="nonzero"/></clipPath><clipPath id="fa99dfd752"><path d="M 30 38.621094 L 44 38.621094 L 44 64.121094 L 30 64.121094 Z M 30 38.621094 " clip-rule="nonzero"/></clipPath></defs><g clip-path="url(#674a95c499)"><path fill="#ffffff" d="M 37.613281 13.542969 C 37.617188 13.457031 37.59375 13.449219 37.539062 13.515625 C 36.402344 14.914062 34.710938 15.832031 32.964844 16.109375 C 32.613281 16.167969 32.285156 16.085938 31.972656 15.863281 C 31.949219 15.847656 31.949219 15.832031 31.972656 15.816406 C 34.261719 14.324219 36.378906 12.730469 38.089844 10.652344 C 38.113281 10.625 38.128906 10.628906 38.148438 10.652344 C 38.613281 11.347656 38.910156 12.273438 39.0625 13.046875 C 39.378906 14.648438 39.367188 16.242188 39.023438 17.835938 C 38.800781 18.875 38.410156 19.84375 37.847656 20.742188 C 37.816406 20.789062 37.78125 20.792969 37.742188 20.753906 C 36.882812 19.917969 35.976562 19.136719 35.019531 18.410156 C 34.976562 18.378906 34.976562 18.347656 35.019531 18.316406 C 36.085938 17.589844 36.8125 16.65625 37.207031 15.515625 C 37.433594 14.851562 37.570312 14.195312 37.613281 13.542969 Z M 37.613281 13.542969 " fill-opacity="1" fill-rule="nonzero"/></g><g clip-path="url(#6330915513)"><path fill="#ffffff" d="M 9.527344 10.6875 C 10.765625 12.132812 12.195312 13.398438 13.757812 14.488281 C 14.414062 14.941406 15.066406 15.402344 15.722656 15.867188 C 15.746094 15.882812 15.746094 15.898438 15.71875 15.914062 C 15.144531 16.226562 14.644531 16.125 13.996094 15.960938 C 12.421875 15.5625 11.101562 14.753906 10.035156 13.535156 C 10.023438 13.519531 10.003906 13.515625 9.984375 13.523438 C 9.964844 13.53125 9.957031 13.546875 9.960938 13.570312 C 10.121094 14.742188 10.46875 16 11.125 16.914062 C 11.488281 17.414062 12.011719 17.890625 12.691406 18.332031 C 12.71875 18.351562 12.722656 18.371094 12.695312 18.386719 C 11.695312 19.113281 10.746094 19.898438 9.851562 20.746094 C 9.820312 20.773438 9.796875 20.773438 9.773438 20.738281 C 8.726562 19.097656 8.339844 17.351562 8.292969 15.421875 C 8.253906 13.777344 8.601562 12.121094 9.433594 10.695312 C 9.460938 10.648438 9.492188 10.644531 9.527344 10.6875 Z M 9.527344 10.6875 " fill-opacity="1" fill-rule="nonzero"/></g><path fill="#ffffff" d="M 15.273438 14.859375 C 15.238281 14.835938 15.238281 14.8125 15.273438 14.789062 C 16.792969 13.742188 18.453125 13.003906 20.257812 12.570312 C 24.472656 11.558594 28.847656 12.335938 32.4375 14.804688 C 32.464844 14.824219 32.464844 14.839844 32.4375 14.855469 C 32.097656 15.082031 31.742188 15.269531 31.363281 15.417969 C 31.335938 15.425781 31.316406 15.425781 31.292969 15.417969 C 29.460938 14.65625 27.476562 14.125 25.496094 13.96875 C 25.226562 13.945312 24.953125 13.890625 24.691406 13.890625 C 23.914062 13.886719 23.164062 13.878906 22.390625 13.949219 C 20.339844 14.128906 18.363281 14.613281 16.464844 15.398438 C 16.226562 15.5 15.503906 15.007812 15.273438 14.859375 Z M 15.273438 14.859375 " fill-opacity="1" fill-rule="nonzero"/><path fill="#ffffff" d="M 21.664062 15.253906 C 21.285156 15.671875 20.859375 16.023438 20.511719 16.265625 C 18.960938 17.347656 16.738281 17.121094 14.921875 17.105469 C 14.914062 17.105469 14.90625 17.097656 14.902344 17.089844 C 14.902344 17.082031 14.902344 17.074219 14.910156 17.066406 C 14.960938 17.035156 15.015625 17.023438 15.074219 17.03125 C 15.085938 17.03125 15.097656 17.03125 15.109375 17.027344 C 17.238281 16.253906 19.414062 15.644531 21.636719 15.203125 C 21.648438 15.199219 21.660156 15.203125 21.667969 15.21875 C 21.675781 15.230469 21.671875 15.242188 21.664062 15.253906 Z M 21.664062 15.253906 " fill-opacity="1" fill-rule="nonzero"/><path fill="#ffffff" d="M 32.757812 17.042969 C 32.773438 17.046875 32.785156 17.050781 32.789062 17.050781 C 32.808594 17.054688 32.816406 17.0625 32.816406 17.082031 C 32.8125 17.101562 32.804688 17.109375 32.785156 17.105469 C 31.878906 17.109375 30.972656 17.109375 30.066406 17.105469 C 29.9375 17.105469 29.773438 17.09375 29.582031 17.070312 C 29.367188 17.042969 29.128906 17.042969 28.933594 16.996094 C 27.773438 16.738281 26.820312 16.144531 26.0625 15.21875 C 26.054688 15.207031 26.054688 15.199219 26.070312 15.195312 C 26.09375 15.191406 26.109375 15.199219 26.125 15.214844 C 26.140625 15.238281 26.164062 15.253906 26.191406 15.257812 C 28.578125 15.71875 30.574219 16.378906 32.757812 17.042969 Z M 32.757812 17.042969 " fill-opacity="1" fill-rule="nonzero"/><path fill="#ffffff" d="M 23.179688 15.777344 C 21.320312 18.460938 18.636719 20.40625 15.589844 21.535156 C 14.527344 21.929688 13.703125 22.265625 13.121094 22.550781 C 12.660156 22.777344 12.289062 23.09375 12.011719 23.503906 C 12.007812 23.515625 11.996094 23.519531 11.984375 23.511719 C 11.976562 23.507812 11.972656 23.5 11.976562 23.488281 C 12.117188 23.054688 12.316406 22.667969 12.613281 22.296875 C 14.226562 20.261719 16.601562 19.179688 18.898438 18.125 C 20.382812 17.445312 21.796875 16.648438 23.136719 15.734375 C 23.148438 15.722656 23.164062 15.726562 23.175781 15.738281 C 23.1875 15.75 23.1875 15.761719 23.179688 15.777344 Z M 23.179688 15.777344 " fill-opacity="1" fill-rule="nonzero"/><path fill="#ffffff" d="M 34.242188 21.363281 C 34.917969 21.953125 35.398438 22.664062 35.679688 23.5 C 35.6875 23.515625 35.683594 23.523438 35.671875 23.527344 C 35.65625 23.535156 35.648438 23.53125 35.640625 23.519531 C 35.289062 22.921875 34.734375 22.582031 34.109375 22.339844 C 32.839844 21.847656 31.96875 21.503906 31.484375 21.304688 C 28.667969 20.132812 26.210938 18.269531 24.421875 15.789062 C 24.410156 15.773438 24.410156 15.757812 24.425781 15.742188 C 24.441406 15.730469 24.453125 15.730469 24.472656 15.742188 C 27.570312 17.933594 31.359375 18.847656 34.242188 21.363281 Z M 34.242188 21.363281 " fill-opacity="1" fill-rule="nonzero"/><g clip-path="url(#757126e82c)"><path fill="#ffffff" d="M 6.90625 30.117188 C 6.90625 30.105469 6.902344 30.097656 6.890625 30.09375 C 6.878906 30.085938 6.871094 30.089844 6.863281 30.097656 C 5.949219 31.230469 5.339844 32.542969 4.886719 33.929688 C 4.835938 34.09375 4.808594 34.089844 4.808594 33.917969 C 4.808594 30.511719 5.773438 27.355469 7.703125 24.449219 C 9.628906 21.542969 12.253906 19.433594 15.269531 17.820312 C 15.28125 17.8125 15.292969 17.816406 15.300781 17.828125 C 15.308594 17.839844 15.308594 17.847656 15.296875 17.859375 C 14.894531 18.234375 14.519531 18.625 14.164062 19.039062 C 12.40625 21.085938 11.058594 23.429688 10.128906 26.070312 C 9.78125 27.046875 9.546875 27.949219 9.417969 28.777344 C 9.214844 30.109375 9.226562 31.542969 9.585938 32.835938 C 10.222656 35.128906 12.03125 36.882812 14.046875 38.027344 C 14.109375 38.0625 14.132812 38.117188 14.117188 38.1875 C 13.515625 40.632812 13.957031 43.277344 15.140625 45.488281 C 15.15625 45.519531 15.148438 45.527344 15.117188 45.507812 C 12.332031 43.773438 9.855469 40.941406 9.363281 37.570312 C 9.253906 36.800781 9.222656 36.03125 9.273438 35.265625 C 9.273438 35.238281 9.265625 35.21875 9.242188 35.203125 C 9.222656 35.1875 9.199219 35.1875 9.175781 35.195312 C 7.847656 35.773438 7 36.917969 6.585938 38.28125 C 6.582031 38.296875 6.574219 38.300781 6.558594 38.300781 C 6.542969 38.300781 6.535156 38.292969 6.53125 38.277344 C 6.496094 38.128906 6.492188 37.964844 6.460938 37.820312 C 5.925781 35.289062 6.0625 32.859375 6.828125 30.445312 C 6.863281 30.335938 6.886719 30.226562 6.90625 30.117188 Z M 6.90625 30.117188 " fill-opacity="1" fill-rule="nonzero"/></g><path fill="#ffffff" d="M 32.550781 45.417969 C 33.753906 43.113281 34.085938 40.679688 33.542969 38.113281 C 33.539062 38.085938 33.546875 38.0625 33.570312 38.046875 C 34.449219 37.449219 35.210938 36.949219 36.039062 36.125 C 38.390625 33.789062 38.820312 30.53125 37.957031 27.429688 C 36.988281 23.933594 35.089844 20.40625 32.410156 17.910156 C 32.402344 17.90625 32.402344 17.898438 32.410156 17.890625 C 32.414062 17.882812 32.421875 17.878906 32.429688 17.886719 C 36.449219 20.003906 39.738281 23.097656 41.519531 27.324219 C 42.425781 29.46875 42.871094 31.714844 42.847656 34.058594 C 42.851562 34.070312 42.84375 34.078125 42.832031 34.078125 C 42.816406 34.082031 42.808594 34.078125 42.804688 34.0625 C 42.371094 32.640625 41.699219 31.28125 40.753906 30.136719 C 40.742188 30.121094 40.726562 30.117188 40.707031 30.128906 C 40.6875 30.136719 40.683594 30.152344 40.6875 30.171875 C 41.585938 32.828125 41.714844 35.527344 41.074219 38.269531 C 41.070312 38.28125 41.066406 38.289062 41.050781 38.289062 C 41.039062 38.289062 41.03125 38.285156 41.027344 38.273438 C 41 38.222656 40.988281 38.167969 40.992188 38.113281 C 40.992188 38.089844 40.988281 38.066406 40.980469 38.046875 C 40.539062 36.804688 39.695312 35.703125 38.441406 35.226562 C 38.390625 35.210938 38.363281 35.226562 38.367188 35.28125 C 38.398438 36.609375 38.285156 37.90625 37.863281 39.148438 C 37.046875 41.539062 35.34375 43.492188 33.328125 44.945312 C 33.054688 45.140625 32.785156 45.335938 32.515625 45.535156 C 32.5 45.542969 32.492188 45.542969 32.488281 45.523438 C 32.480469 45.503906 32.488281 45.484375 32.511719 45.464844 C 32.53125 45.453125 32.542969 45.4375 32.550781 45.417969 Z M 32.550781 45.417969 " fill-opacity="1" fill-rule="nonzero"/><path fill="#ffffff" d="M 24.289062 18.789062 C 27.023438 20.054688 29.488281 21.546875 31.929688 23.171875 C 31.957031 23.1875 31.953125 23.195312 31.925781 23.191406 C 31.785156 23.175781 31.609375 23.148438 31.394531 23.109375 C 28.839844 22.628906 26.394531 21.835938 24.140625 20.558594 C 23.929688 20.441406 23.921875 20.296875 23.648438 20.453125 C 21.179688 21.894531 18.53125 22.683594 15.738281 23.207031 C 15.730469 23.207031 15.722656 23.203125 15.714844 23.195312 C 15.710938 23.183594 15.714844 23.175781 15.722656 23.171875 C 18.269531 21.457031 20.945312 19.796875 23.773438 18.597656 C 23.800781 18.589844 23.824219 18.589844 23.851562 18.597656 C 23.957031 18.636719 24.101562 18.703125 24.289062 18.789062 Z M 24.289062 18.789062 " fill-opacity="1" fill-rule="nonzero"/><path fill="#ffffff" d="M 23.863281 21.8125 C 25.371094 22.867188 27.074219 23.640625 28.898438 23.628906 C 28.917969 23.628906 28.9375 23.640625 28.949219 23.660156 C 28.960938 23.679688 28.960938 23.699219 28.945312 23.71875 C 28.621094 24.242188 28.132812 24.742188 27.574219 24.980469 C 26.316406 25.511719 24.777344 24.617188 23.902344 23.757812 C 23.847656 23.703125 23.792969 23.703125 23.738281 23.757812 C 22.863281 24.625 21.265625 25.554688 20.035156 24.957031 C 19.472656 24.683594 19.042969 24.273438 18.75 23.726562 C 18.722656 23.679688 18.738281 23.652344 18.792969 23.644531 C 19.246094 23.597656 19.664062 23.601562 20.128906 23.488281 C 20.671875 23.355469 21.054688 23.25 21.277344 23.164062 C 22.175781 22.824219 23.015625 22.371094 23.796875 21.8125 C 23.820312 21.796875 23.839844 21.796875 23.863281 21.8125 Z M 23.863281 21.8125 " fill-opacity="1" fill-rule="nonzero"/><path fill="#ffffff" d="M 20.457031 27.730469 C 20.507812 27.757812 20.535156 27.804688 20.535156 27.863281 C 20.550781 29.53125 20.164062 30.988281 19.648438 32.5625 C 19.625 32.632812 19.605469 32.632812 19.59375 32.554688 C 19.585938 32.53125 19.589844 32.484375 19.601562 32.417969 C 19.773438 31.4375 19.753906 30.277344 18.910156 29.605469 C 18.574219 29.335938 18.117188 29.234375 17.675781 29.113281 C 16.316406 28.738281 15.410156 27.707031 14.882812 26.441406 C 14.425781 25.347656 14.136719 24.160156 12.980469 23.59375 C 12.960938 23.585938 12.957031 23.570312 12.960938 23.550781 C 12.96875 23.535156 12.980469 23.527344 13 23.527344 C 14.019531 23.691406 14.886719 24.199219 15.585938 24.925781 C 15.71875 25.066406 15.804688 25.097656 16.003906 25.058594 C 16.863281 24.886719 17.660156 24.945312 18.347656 25.492188 C 19.175781 26.152344 19.464844 27.183594 20.457031 27.730469 Z M 19.140625 27.460938 C 18.253906 26.902344 17.289062 26.375 16.253906 25.871094 C 16.210938 25.851562 16.179688 25.863281 16.160156 25.902344 C 16.027344 26.15625 16.144531 26.652344 16.261719 26.914062 C 16.636719 27.757812 17.289062 27.917969 18.152344 27.765625 C 18.496094 27.703125 18.835938 27.632812 19.171875 27.558594 C 19.21875 27.546875 19.226562 27.523438 19.195312 27.488281 C 19.191406 27.480469 19.183594 27.476562 19.171875 27.472656 C 19.15625 27.46875 19.148438 27.464844 19.140625 27.460938 Z M 19.140625 27.460938 " fill-opacity="1" fill-rule="nonzero"/><path fill="#ffffff" d="M 28.273438 30.21875 C 27.921875 30.871094 28.003906 31.855469 28.105469 32.703125 C 28.105469 32.714844 28.101562 32.71875 28.09375 32.71875 C 28.085938 32.722656 28.082031 32.71875 28.078125 32.710938 C 27.660156 31.628906 27.316406 30.457031 27.214844 29.292969 C 27.175781 28.878906 27.078125 28.25 27.164062 27.816406 C 27.171875 27.792969 27.183594 27.773438 27.210938 27.761719 C 27.894531 27.40625 28.203125 26.871094 28.742188 26.125 C 29.421875 25.183594 30.335938 24.816406 31.488281 25.023438 C 31.664062 25.054688 31.789062 25.078125 31.863281 25.085938 C 31.890625 25.089844 31.910156 25.082031 31.929688 25.0625 C 32.703125 24.265625 33.46875 23.710938 34.613281 23.527344 C 34.632812 23.523438 34.648438 23.53125 34.652344 23.554688 C 34.660156 23.574219 34.652344 23.589844 34.632812 23.597656 C 33.363281 24.226562 33.054688 25.808594 32.476562 26.960938 C 31.9375 28.03125 31.042969 28.808594 29.894531 29.132812 C 29.191406 29.332031 28.644531 29.53125 28.273438 30.21875 Z M 31.378906 25.863281 C 30.398438 26.34375 29.441406 26.875 28.515625 27.449219 C 28.5 27.460938 28.492188 27.476562 28.496094 27.496094 C 28.5 27.511719 28.507812 27.527344 28.527344 27.53125 C 28.726562 27.59375 28.933594 27.640625 29.144531 27.679688 C 29.253906 27.699219 29.332031 27.753906 29.449219 27.765625 C 29.570312 27.777344 29.648438 27.789062 29.679688 27.796875 C 30.433594 27.96875 31.046875 27.628906 31.363281 26.957031 C 31.472656 26.722656 31.628906 26.128906 31.496094 25.898438 C 31.46875 25.851562 31.429688 25.839844 31.378906 25.863281 Z M 31.378906 25.863281 " fill-opacity="1" fill-rule="nonzero"/><path fill="#ffffff" d="M 17.082031 30.113281 C 17.292969 30.15625 17.433594 30.199219 17.621094 30.214844 C 17.636719 30.214844 17.644531 30.222656 17.648438 30.238281 C 17.648438 30.253906 17.644531 30.261719 17.628906 30.269531 C 17.066406 30.535156 16.375 30.679688 15.953125 30.757812 C 14.6875 30.988281 13.863281 30.519531 13.476562 29.351562 C 13.152344 28.363281 13.394531 27.140625 13.734375 26.164062 C 13.738281 26.148438 13.746094 26.140625 13.761719 26.144531 C 13.777344 26.148438 13.785156 26.15625 13.78125 26.167969 C 13.859375 27.652344 14.425781 28.9375 15.808594 29.640625 C 16.273438 29.875 16.699219 30.035156 17.082031 30.113281 Z M 17.082031 30.113281 " fill-opacity="1" fill-rule="nonzero"/><path fill="#ffffff" d="M 30.027344 30.300781 C 30.007812 30.292969 29.992188 30.28125 29.980469 30.265625 C 29.960938 30.242188 29.96875 30.226562 30 30.222656 C 32.226562 29.847656 33.792969 28.613281 33.796875 26.1875 C 33.796875 26.164062 33.808594 26.152344 33.832031 26.144531 C 33.855469 26.140625 33.871094 26.152344 33.878906 26.171875 C 34.285156 27.234375 34.441406 28.246094 34.167969 29.335938 C 33.648438 31.410156 31.40625 30.8125 30.027344 30.300781 Z M 30.027344 30.300781 " fill-opacity="1" fill-rule="nonzero"/><path fill="#ffffff" d="M 12.9375 34.441406 C 12.175781 33.953125 11.664062 33.195312 11.488281 32.320312 C 11.039062 30.089844 11.996094 27.894531 13.355469 26.191406 C 13.359375 26.1875 13.363281 26.1875 13.367188 26.1875 C 13.375 26.191406 13.378906 26.195312 13.382812 26.199219 C 13.382812 26.203125 13.382812 26.207031 13.378906 26.210938 C 12.445312 27.917969 12 30.664062 13.441406 32.257812 C 13.8125 32.667969 14.332031 32.832031 14.871094 32.664062 C 15.257812 32.542969 15.644531 32.414062 16.03125 32.273438 C 16.046875 32.269531 16.058594 32.273438 16.066406 32.289062 C 16.074219 32.304688 16.074219 32.316406 16.058594 32.328125 C 14.734375 33.394531 13.851562 34.566406 13.5 36.25 C 13.496094 36.273438 13.484375 36.285156 13.457031 36.285156 C 13.433594 36.28125 13.421875 36.269531 13.421875 36.246094 C 13.378906 35.753906 13.328125 35.261719 13.273438 34.765625 C 13.246094 34.546875 13.082031 34.535156 12.9375 34.441406 Z M 12.9375 34.441406 " fill-opacity="1" fill-rule="nonzero"/><path fill="#ffffff" d="M 34.109375 36.28125 C 33.796875 34.605469 32.921875 33.402344 31.59375 32.347656 C 31.585938 32.339844 31.582031 32.332031 31.585938 32.320312 C 31.585938 32.3125 31.59375 32.304688 31.605469 32.300781 C 31.613281 32.300781 31.625 32.300781 31.640625 32.300781 C 31.652344 32.300781 31.664062 32.300781 31.675781 32.304688 C 32.300781 32.554688 32.730469 32.699219 32.964844 32.742188 C 33.894531 32.910156 34.691406 31.789062 34.921875 31.015625 C 35.386719 29.472656 35.035156 27.664062 34.273438 26.277344 C 34.269531 26.269531 34.273438 26.261719 34.28125 26.257812 C 34.285156 26.253906 34.292969 26.253906 34.296875 26.257812 C 35.808594 28.042969 36.886719 30.890625 35.8125 33.164062 C 35.585938 33.640625 35.199219 34.117188 34.761719 34.382812 C 34.597656 34.484375 34.476562 34.5625 34.394531 34.621094 C 34.375 34.636719 34.363281 34.660156 34.359375 34.683594 L 34.167969 36.28125 C 34.164062 36.296875 34.15625 36.304688 34.140625 36.304688 C 34.125 36.304688 34.113281 36.296875 34.109375 36.28125 Z M 34.109375 36.28125 " fill-opacity="1" fill-rule="nonzero"/><g clip-path="url(#51c2c6464a)"><path fill="#ffffff" d="M 24.378906 48.683594 L 23.378906 48.683594 C 20.425781 48.339844 18.453125 46.089844 18.078125 43.210938 C 18.074219 43.1875 18.0625 43.167969 18.039062 43.160156 C 16.496094 42.433594 15.589844 41.253906 15.320312 39.621094 C 14.859375 36.828125 16.042969 34.402344 18.195312 32.683594 C 18.207031 32.675781 18.21875 32.675781 18.226562 32.683594 C 18.238281 32.691406 18.238281 32.703125 18.234375 32.714844 C 18.070312 33.050781 17.890625 33.425781 17.785156 33.726562 C 16.898438 36.183594 17.519531 38.992188 20.378906 39.691406 C 20.863281 39.808594 21.328125 39.867188 21.78125 39.867188 C 21.871094 39.867188 21.871094 39.882812 21.792969 39.914062 C 20.164062 40.535156 17.996094 40.460938 17.050781 38.730469 C 17.042969 38.714844 17.03125 38.710938 17.015625 38.71875 C 17.003906 38.722656 16.996094 38.730469 17 38.746094 C 17.160156 39.914062 17.9375 40.933594 19.027344 41.355469 C 20.359375 41.875 22.042969 41.453125 23.238281 40.71875 C 23.300781 40.675781 23.3125 40.625 23.273438 40.5625 C 22.925781 40.039062 22.558594 39.511719 22.042969 39.128906 C 21.582031 38.785156 20.953125 38.304688 20.160156 37.691406 C 20.039062 37.597656 19.960938 37.503906 19.917969 37.40625 C 19.628906 36.75 19.285156 36.117188 18.890625 35.507812 C 18.875 35.484375 18.875 35.464844 18.898438 35.449219 C 18.917969 35.433594 18.9375 35.433594 18.957031 35.453125 C 18.984375 35.480469 19.019531 35.5 19.070312 35.507812 C 20.414062 35.824219 21.757812 36.140625 23.097656 36.457031 C 23.347656 36.515625 23.773438 36.617188 24.09375 36.550781 C 25.644531 36.226562 27.191406 35.832031 28.722656 35.433594 C 28.730469 35.429688 28.738281 35.433594 28.746094 35.441406 C 28.753906 35.453125 28.753906 35.460938 28.746094 35.46875 C 28.371094 36.097656 28.035156 36.75 27.738281 37.425781 C 27.695312 37.523438 27.632812 37.601562 27.550781 37.664062 C 26.9375 38.132812 26.316406 38.597656 25.699219 39.0625 C 25.113281 39.5 24.722656 39.957031 24.375 40.550781 C 24.335938 40.621094 24.351562 40.675781 24.417969 40.71875 C 26.722656 42.148438 30.015625 41.996094 30.671875 38.78125 C 30.675781 38.753906 30.667969 38.734375 30.640625 38.726562 C 30.617188 38.714844 30.597656 38.722656 30.582031 38.746094 C 29.652344 40.394531 27.464844 40.582031 25.855469 39.90625 C 25.832031 39.898438 25.832031 39.890625 25.855469 39.886719 C 26.496094 39.789062 27 39.785156 27.6875 39.546875 C 30.691406 38.507812 30.707031 35.066406 29.367188 32.71875 C 29.359375 32.703125 29.363281 32.695312 29.371094 32.6875 C 29.382812 32.675781 29.394531 32.675781 29.402344 32.683594 C 30.425781 33.484375 31.359375 34.558594 31.878906 35.738281 C 33.03125 38.332031 32.511719 41.785156 29.710938 43.125 C 29.660156 43.152344 29.625 43.214844 29.605469 43.316406 C 29.132812 46.175781 27.351562 48.25 24.378906 48.683594 Z M 28.605469 43.421875 C 26.917969 43.640625 25.222656 43.175781 23.855469 42.191406 C 23.839844 42.179688 23.828125 42.179688 23.816406 42.191406 C 22.503906 43.097656 21.070312 43.523438 19.511719 43.46875 C 19.367188 43.464844 19.277344 43.453125 19.234375 43.441406 C 19.046875 43.375 19 43.429688 19.097656 43.605469 C 20.0625 45.328125 21.769531 46.371094 23.75 46.40625 C 25.953125 46.445312 27.597656 45.382812 28.65625 43.496094 C 28.664062 43.476562 28.664062 43.460938 28.652344 43.441406 C 28.644531 43.425781 28.628906 43.417969 28.605469 43.421875 Z M 28.605469 43.421875 " fill-opacity="1" fill-rule="nonzero"/></g><path fill="#ffffff" d="M 28.761719 49.46875 C 29.640625 48.542969 30.386719 47.515625 31.246094 46.582031 C 31.566406 46.234375 31.089844 45.78125 30.734375 46.070312 C 29.746094 46.875 28.667969 47.566406 27.683594 48.390625 C 26.6875 49.226562 25.703125 50.234375 24.589844 50.910156 C 23.894531 51.332031 23.890625 52.347656 24.589844 52.765625 C 26.578125 53.964844 28.410156 55.359375 30.0625 56.992188 C 31.195312 58.113281 32.976562 56.324219 31.808594 55.25 C 30.257812 53.816406 28.578125 52.558594 26.761719 51.507812 C 27.398438 50.796875 28.128906 50.136719 28.761719 49.46875 Z M 28.761719 49.46875 " fill-opacity="1" fill-rule="nonzero"/><g clip-path="url(#f40b37e094)"><path fill="#ffffff" d="M 45.347656 56.992188 C 47 55.359375 48.832031 53.964844 50.824219 52.765625 C 51.519531 52.347656 51.515625 51.332031 50.824219 50.90625 C 49.707031 50.234375 48.722656 49.222656 47.726562 48.390625 C 46.746094 47.566406 45.667969 46.875 44.675781 46.070312 C 44.320312 45.78125 43.84375 46.230469 44.167969 46.582031 C 45.023438 47.515625 45.769531 48.542969 46.648438 49.46875 C 47.28125 50.136719 48.015625 50.796875 48.648438 51.507812 C 46.832031 52.558594 45.152344 53.816406 43.601562 55.246094 C 42.4375 56.324219 44.214844 58.113281 45.347656 56.992188 Z M 45.347656 56.992188 " fill-opacity="1" fill-rule="nonzero"/></g><g clip-path="url(#fa99dfd752)"><path fill="#ffffff" d="M 33.167969 62.769531 C 33.183594 62.71875 35.578125 57.308594 36.433594 55.382812 C 38.363281 51.039062 40.289062 46.695312 42.21875 42.347656 C 42.667969 41.34375 43.105469 40.363281 43.429688 39.308594 C 43.570312 38.847656 42.925781 38.613281 42.679688 38.992188 C 41.066406 41.4375 39.921875 44.246094 38.621094 46.863281 C 36.511719 51.117188 34.410156 55.371094 32.320312 59.636719 C 31.976562 60.335938 30.980469 62.242188 30.910156 62.519531 C 30.785156 63.007812 30.496094 63.617188 31.328125 63.996094 C 32.027344 64.371094 32.914062 63.757812 33.167969 62.769531 Z M 33.167969 62.769531 " fill-opacity="1" fill-rule="nonzero"/></g><g fill="#ffffff" fill-opacity="1"><g transform="translate(44.577263, 35.279645)"><g><path d="M 1.296875 -0.609375 L 1.28125 -7 L 1.25 -7.328125 L 1.234375 -7.703125 L 1.28125 -8.34375 L 1.25 -8.671875 L 1.28125 -9 L 1.28125 -11.390625 L 1.4375 -11.765625 L 1.796875 -11.90625 L 2.109375 -11.953125 L 2.796875 -11.875 L 3.140625 -11.953125 L 3.796875 -11.953125 L 4.140625 -11.75 L 4.3125 -11.375 L 4.296875 -11.046875 L 4.34375 -10.078125 L 4.3125 -9.390625 L 4.34375 -8.984375 L 4.328125 -3.203125 L 4.46875 -2.859375 L 4.8125 -2.734375 L 5.171875 -2.765625 L 5.828125 -2.734375 L 6.140625 -2.78125 L 6.484375 -2.703125 L 7.171875 -2.734375 L 7.53125 -2.671875 L 7.859375 -2.75 L 8.21875 -2.78125 L 8.53125 -2.578125 L 8.671875 -2.0625 L 8.6875 -0.6875 L 8.5 -0.15625 L 8.1875 0.015625 L 4.8125 0 L 4.4375 0.03125 L 4.109375 -0.015625 L 3.453125 0.015625 L 2.796875 -0.015625 L 2.078125 0.03125 L 1.734375 0 L 1.421875 -0.171875 Z M 1.296875 -0.609375 "/></g></g></g><g fill="#ffffff" fill-opacity="1"><g transform="translate(53.744243, 35.279645)"><g><path d="M 1.25 -0.5 L 1.234375 -5.609375 L 1.265625 -6 L 1.234375 -6.328125 L 1.25 -6.640625 L 1.28125 -6.953125 L 1.25 -7.34375 L 1.28125 -7.65625 L 1.265625 -8.015625 L 1.234375 -8.296875 L 1.296875 -10.21875 L 1.25 -10.71875 L 1.296875 -11.421875 L 1.390625 -11.734375 L 1.765625 -11.921875 L 2.25 -11.90625 L 2.609375 -11.9375 L 3.484375 -11.9375 L 3.78125 -11.90625 L 4.453125 -11.90625 L 4.984375 -11.9375 L 5.3125 -11.921875 L 5.828125 -11.953125 L 6.140625 -11.921875 L 6.796875 -11.953125 L 7.171875 -11.90625 L 8.203125 -11.921875 L 8.484375 -11.734375 L 8.6875 -11.21875 L 8.65625 -10.5625 L 8.6875 -9.703125 L 8.53125 -9.359375 L 8.1875 -9.1875 L 6.890625 -9.21875 L 6.53125 -9.1875 L 6.1875 -9.203125 L 5.875 -9.1875 L 5.390625 -9.21875 L 4.84375 -9.21875 L 4.515625 -9 L 4.34375 -8.65625 L 4.375 -7.890625 L 4.34375 -7.5625 L 4.34375 -7.09375 L 4.53125 -6.734375 L 4.875 -6.59375 L 5.25 -6.609375 L 5.921875 -6.53125 L 6.8125 -6.59375 L 7.65625 -6.5625 L 8.015625 -6.421875 L 8.1875 -6.078125 L 8.203125 -4.5625 L 8.03125 -4.046875 L 7.671875 -3.875 L 6.96875 -3.828125 L 6.625 -3.875 L 6.265625 -3.859375 L 5.9375 -3.890625 L 5.59375 -3.8125 L 5.234375 -3.890625 L 4.859375 -3.859375 L 4.515625 -3.703125 L 4.359375 -3.359375 L 4.375 -1.546875 L 4.34375 -1.234375 L 4.390625 -0.6875 L 4.1875 -0.171875 L 3.828125 -0.015625 L 2.984375 0.046875 L 1.796875 0 L 1.421875 -0.171875 Z M 1.25 -0.5 "/></g></g></g><g fill="#ffffff" fill-opacity="1"><g transform="translate(63.030494, 35.279645)"><g><path d="M 5.9375 0.046875 L 5.59375 0.015625 L 5.25 0.046875 L 4.859375 0.03125 L 4.53125 -0.03125 L 3.828125 0.015625 L 3.53125 0 L 3.15625 0.03125 L 1.921875 0.015625 L 1.421875 -0.203125 L 1.28125 -0.671875 L 1.25 -1.046875 L 1.296875 -2.21875 L 1.25 -2.5625 L 1.28125 -2.875 L 1.296875 -5.640625 L 1.25 -5.953125 L 1.265625 -7.34375 L 1.296875 -7.671875 L 1.25 -8.03125 L 1.28125 -9.703125 L 1.234375 -10.078125 L 1.28125 -10.78125 L 1.25 -11.421875 L 1.4375 -11.78125 L 1.796875 -11.921875 L 2.125 -11.90625 L 2.46875 -11.9375 L 2.78125 -11.90625 L 3.109375 -11.96875 L 3.4375 -11.921875 L 4.84375 -11.953125 L 5.1875 -11.921875 L 5.46875 -11.9375 L 5.8125 -11.90625 L 6.1875 -11.9375 L 7.5625 -11.953125 L 7.875 -11.875 L 8.234375 -11.875 L 8.578125 -11.75 L 8.734375 -11.421875 L 8.765625 -10.40625 L 8.75 -10.0625 L 8.765625 -9.71875 L 8.59375 -9.40625 L 8.234375 -9.203125 L 7.90625 -9.1875 L 5.46875 -9.21875 L 5.140625 -9.15625 L 4.828125 -9.171875 L 4.453125 -9.03125 L 4.296875 -8.71875 L 4.296875 -8.1875 L 4.4375 -7.65625 L 4.796875 -7.5 L 5.78125 -7.53125 L 6.5 -7.484375 L 6.859375 -7.515625 L 7.859375 -7.515625 L 8.25 -7.296875 L 8.421875 -6.8125 L 8.375 -5.28125 L 8.25 -4.9375 L 7.90625 -4.8125 L 7.515625 -4.828125 L 7.171875 -4.796875 L 6.484375 -4.8125 L 5.828125 -4.765625 L 5.28125 -4.828125 L 4.765625 -4.8125 L 4.46875 -4.625 L 4.3125 -4.265625 L 4.3125 -3.1875 L 4.453125 -2.875 L 4.8125 -2.703125 L 5.1875 -2.75 L 5.5 -2.6875 L 5.875 -2.703125 L 6.21875 -2.671875 L 6.78125 -2.75 L 7.65625 -2.734375 L 7.984375 -2.671875 L 8.375 -2.703125 L 8.734375 -2.5625 L 8.921875 -2.21875 L 8.921875 -0.5 L 8.734375 -0.140625 L 8.375 0.015625 Z M 5.9375 0.046875 "/></g></g></g><g fill="#ffffff" fill-opacity="1"><g transform="translate(72.793837, 35.279645)"><g><path d="M 1.28125 -0.703125 L 1.28125 -3.21875 L 1.25 -3.5625 L 1.265625 -4.9375 L 1.296875 -5.265625 L 1.265625 -5.59375 L 1.265625 -5.9375 L 1.25 -6.3125 L 1.296875 -6.984375 L 1.265625 -7.328125 L 1.25 -11.234375 L 1.453125 -11.71875 L 1.75 -11.875 L 2.765625 -11.96875 L 3.140625 -11.953125 L 3.484375 -11.875 L 3.8125 -11.875 L 4.125 -11.96875 L 4.46875 -11.96875 L 4.8125 -11.90625 L 5.828125 -11.90625 L 6.328125 -11.9375 L 6.875 -11.921875 L 7.84375 -11.6875 L 8.484375 -11.46875 L 9.09375 -11.15625 L 10.0625 -10.125 L 10.25 -9.859375 L 10.375 -9.5625 L 10.6875 -8.59375 L 10.734375 -8.25 L 10.78125 -7.171875 L 10.546875 -6.1875 L 9.890625 -5 L 9.65625 -4.796875 L 9.40625 -4.53125 L 9.25 -4.15625 L 9.28125 -3.75 L 9.484375 -3.5 L 10.03125 -2.609375 L 10.171875 -2.296875 L 10.75 -1.4375 L 10.890625 -1.109375 L 11.09375 -0.875 L 11.28125 -0.5 L 11.1875 -0.125 L 10.859375 0.03125 L 10.296875 0.046875 L 9.96875 0.015625 L 8.625 0.03125 L 8.046875 -0.125 L 7.671875 -0.421875 L 7.484375 -0.71875 L 7.34375 -1.0625 L 7.15625 -1.3125 L 6.828125 -1.921875 L 6.484375 -2.4375 L 6.34375 -2.75 L 6.140625 -3.078125 L 5.796875 -3.375 L 4.8125 -3.515625 L 4.484375 -3.328125 L 4.328125 -2.984375 L 4.296875 -1.890625 L 4.34375 -1.53125 L 4.3125 -1.234375 L 4.3125 -0.640625 L 4.15625 -0.15625 L 3.609375 0.015625 L 3.109375 0.015625 L 2.828125 0.046875 L 2.28125 0 L 1.9375 0.046875 L 1.453125 -0.171875 Z M 4.8125 -6.234375 L 5.1875 -6.265625 L 6 -6.234375 L 6.328125 -6.25 L 6.8125 -6.375 L 7.125 -6.515625 L 7.3125 -6.671875 L 7.5 -6.921875 L 7.65625 -7.265625 L 7.703125 -7.765625 L 7.640625 -8.21875 L 7.53125 -8.484375 L 7.109375 -9.015625 L 6.78125 -9.109375 L 6.34375 -9.140625 L 5.859375 -9.234375 L 5.1875 -9.171875 L 4.84375 -9.1875 L 4.484375 -9.046875 L 4.328125 -8.734375 L 4.296875 -8.015625 L 4.328125 -7.71875 L 4.328125 -6.703125 L 4.46875 -6.421875 Z M 4.8125 -6.234375 "/></g></g></g><g fill="#ffffff" fill-opacity="1"><g transform="translate(84.618901, 35.279645)"><g><path d="M 10.0625 -0.296875 L 9.796875 -0.515625 L 9.359375 -1 L 6.71875 -3.625 L 6.421875 -3.8125 L 6.203125 -4.078125 L 5 -5.234375 L 4.765625 -5.515625 L 4.546875 -5.609375 L 4.4375 -5.3125 L 4.390625 -4.984375 L 4.375 -0.671875 L 4.203125 -0.140625 L 3.875 0.03125 L 3.515625 0.046875 L 2.84375 0 L 2.46875 0.03125 L 1.765625 0 L 1.421875 -0.125 L 1.265625 -0.4375 L 1.234375 -1.875 L 1.265625 -2.203125 L 1.234375 -5 L 1.28125 -5.28125 L 1.25 -5.984375 L 1.265625 -6.265625 L 1.265625 -11.4375 L 1.421875 -11.765625 L 1.8125 -11.9375 L 2.3125 -11.8125 L 2.703125 -11.609375 L 2.96875 -11.40625 L 6.328125 -8.015625 L 6.796875 -7.640625 L 8.015625 -6.421875 L 8.265625 -6.3125 L 8.375 -6.59375 L 8.40625 -9.65625 L 8.375 -10.03125 L 8.421875 -10.734375 L 8.375 -11.015625 L 8.390625 -11.375 L 8.578125 -11.734375 L 8.90625 -11.921875 L 11.015625 -11.9375 L 11.359375 -11.75 L 11.53125 -11.40625 L 11.578125 -9.03125 L 11.53125 -8.625 L 11.53125 -6.9375 L 11.578125 -6.640625 L 11.546875 -0.421875 L 11.375 -0.078125 L 11 0.03125 L 10.515625 -0.015625 Z M 10.0625 -0.296875 "/></g></g></g><g fill="#ffffff" fill-opacity="1"><g transform="translate(97.466313, 35.279645)"><g><path d="M 10.0625 0.03125 L 9.703125 0 L 9.3125 -0.171875 L 8.96875 -0.421875 L 8.859375 -0.734375 L 8.71875 -1.0625 L 8.390625 -1.328125 L 8.015625 -1.515625 L 7.640625 -1.46875 L 7.328125 -1.5 L 5.65625 -1.484375 L 5.359375 -1.53125 L 4.640625 -1.46875 L 4.3125 -1.515625 L 3.953125 -1.328125 L 3.625 -1 L 3.328125 -0.4375 L 3 -0.140625 L 2.609375 -0.015625 L 1.65625 0.015625 L 1.3125 -0.015625 L 0.640625 0.015625 L 0.3125 -0.078125 L 0.21875 -0.515625 L 0.328125 -0.859375 L 0.671875 -1.53125 L 0.75 -1.84375 L 0.9375 -2.078125 L 1.1875 -2.765625 L 1.5 -3.3125 L 1.625 -3.640625 L 1.796875 -3.90625 L 1.890625 -4.28125 L 3.625 -7.921875 L 3.734375 -8.234375 L 3.921875 -8.5625 L 4 -8.90625 L 4.1875 -9.15625 L 4.875 -10.71875 L 5.03125 -10.96875 L 5.140625 -11.296875 L 5.296875 -11.59375 L 5.609375 -11.875 L 6.15625 -12.0625 L 6.71875 -11.90625 L 7 -11.59375 L 7.328125 -11 L 7.4375 -10.6875 L 7.625 -10.375 L 7.71875 -10.046875 L 8.84375 -7.671875 L 8.96875 -7.3125 L 9.328125 -6.6875 L 9.421875 -6.40625 L 9.578125 -6.15625 L 9.6875 -5.78125 L 9.859375 -5.453125 L 10.03125 -5.203125 L 10.671875 -3.640625 L 11.015625 -3.03125 L 11.25 -2.40625 L 11.71875 -1.515625 L 11.96875 -0.890625 L 12.09375 -0.5 L 12.03125 -0.078125 L 11.5625 0 L 11.03125 0.015625 L 10.703125 -0.015625 Z M 6.1875 -4.203125 L 6.875 -4.234375 L 7.125 -4.359375 L 7.1875 -4.671875 L 6.390625 -6.546875 L 6.15625 -6.6875 L 5.96875 -6.53125 L 5.171875 -4.6875 L 5.1875 -4.359375 L 5.453125 -4.25 L 5.84375 -4.28125 Z M 6.1875 -4.203125 "/></g></g></g><g fill="#ffffff" fill-opacity="1"><g transform="translate(109.836631, 35.279645)"><g><path d="M 10.0625 -0.296875 L 9.796875 -0.515625 L 9.359375 -1 L 6.71875 -3.625 L 6.421875 -3.8125 L 6.203125 -4.078125 L 5 -5.234375 L 4.765625 -5.515625 L 4.546875 -5.609375 L 4.4375 -5.3125 L 4.390625 -4.984375 L 4.375 -0.671875 L 4.203125 -0.140625 L 3.875 0.03125 L 3.515625 0.046875 L 2.84375 0 L 2.46875 0.03125 L 1.765625 0 L 1.421875 -0.125 L 1.265625 -0.4375 L 1.234375 -1.875 L 1.265625 -2.203125 L 1.234375 -5 L 1.28125 -5.28125 L 1.25 -5.984375 L 1.265625 -6.265625 L 1.265625 -11.4375 L 1.421875 -11.765625 L 1.8125 -11.9375 L 2.3125 -11.8125 L 2.703125 -11.609375 L 2.96875 -11.40625 L 6.328125 -8.015625 L 6.796875 -7.640625 L 8.015625 -6.421875 L 8.265625 -6.3125 L 8.375 -6.59375 L 8.40625 -9.65625 L 8.375 -10.03125 L 8.421875 -10.734375 L 8.375 -11.015625 L 8.390625 -11.375 L 8.578125 -11.734375 L 8.90625 -11.921875 L 11.015625 -11.9375 L 11.359375 -11.75 L 11.53125 -11.40625 L 11.578125 -9.03125 L 11.53125 -8.625 L 11.53125 -6.9375 L 11.578125 -6.640625 L 11.546875 -0.421875 L 11.375 -0.078125 L 11 0.03125 L 10.515625 -0.015625 Z M 10.0625 -0.296875 "/></g></g></g><g fill="#ffffff" fill-opacity="1"><g transform="translate(122.684042, 35.279645)"><g><path d="M 5.25 0.046875 L 4.546875 -0.015625 L 4.203125 0.03125 L 2.125 0 L 1.796875 0.03125 L 1.453125 -0.140625 L 1.28125 -0.671875 L 1.28125 -1.53125 L 1.25 -1.859375 L 1.265625 -11.390625 L 1.421875 -11.75 L 1.796875 -11.90625 L 2.125 -11.875 L 2.4375 -11.9375 L 6.328125 -11.90625 L 7.328125 -11.75 L 7.6875 -11.65625 L 7.984375 -11.53125 L 8.3125 -11.453125 L 8.640625 -11.265625 L 9.515625 -10.6875 L 10.421875 -9.6875 L 11 -8.78125 L 11.125 -8.453125 L 11.359375 -7.8125 L 11.59375 -6.453125 L 11.609375 -5.96875 L 11.5625 -5.421875 L 11.5625 -5.0625 L 11.5 -4.71875 L 11.40625 -4.4375 L 11.34375 -4.078125 L 11.25 -3.75 L 10.984375 -3.078125 L 10.78125 -2.8125 L 10.609375 -2.46875 L 9.765625 -1.390625 L 8.625 -0.625 L 7.828125 -0.296875 L 7.125 -0.171875 L 6.625 -0.015625 L 6.296875 -0.015625 L 5.765625 0.046875 Z M 5.203125 -2.75 L 5.703125 -2.765625 L 6.4375 -2.84375 L 6.9375 -3 L 7.515625 -3.375 L 8.140625 -4.09375 L 8.4375 -4.71875 L 8.609375 -5.921875 L 8.34375 -7.421875 L 8.1875 -7.71875 L 8.015625 -8.015625 L 7.75 -8.3125 L 7.5 -8.5625 L 7.25 -8.75 L 6.9375 -8.90625 L 6.265625 -9.09375 L 5.78125 -9.140625 L 5.0625 -9.125 L 4.515625 -9 L 4.34375 -8.609375 L 4.3125 -8.3125 L 4.34375 -5.96875 L 4.28125 -5.109375 L 4.34375 -4.28125 L 4.328125 -3.578125 L 4.34375 -3.296875 L 4.484375 -2.96875 L 4.875 -2.78125 Z M 5.203125 -2.75 "/></g></g></g><g fill="#ffffff" fill-opacity="1"><g transform="translate(135.071389, 35.279645)"><g><path d="M 6.828125 0.21875 L 5.8125 0.171875 L 4.359375 -0.25 L 4.046875 -0.390625 L 2.875 -1 L 2.65625 -1.265625 L 2.1875 -1.71875 L 1.375 -2.8125 L 1.203125 -3.125 L 1.109375 -3.484375 L 0.859375 -4.0625 L 0.671875 -5.125 L 0.734375 -7.109375 L 0.875 -7.84375 L 1.1875 -8.78125 L 1.34375 -9.0625 L 1.921875 -9.921875 L 2.390625 -10.4375 L 2.9375 -10.8125 L 3.171875 -11.015625 L 4.046875 -11.5625 L 4.6875 -11.734375 L 5 -11.859375 L 5.328125 -11.96875 L 5.671875 -12.03125 L 6.875 -12.109375 L 7.671875 -12.09375 L 9.90625 -11.390625 L 10.78125 -10.84375 L 11.5 -10.171875 L 11.734375 -9.875 L 11.9375 -9.671875 L 12.15625 -9.375 L 12.28125 -9.0625 L 12.578125 -8.5 L 12.671875 -8.109375 L 12.796875 -7.75 L 12.9375 -7.125 L 13.03125 -5.953125 L 12.9375 -4.75 L 12.875 -4.375 L 12.765625 -4.109375 L 12.71875 -3.765625 L 12.59375 -3.4375 L 11.9375 -2.265625 L 11.71875 -1.953125 L 10.515625 -0.8125 L 9 -0.140625 L 8.359375 0.0625 Z M 6.359375 -2.78125 L 7.34375 -2.8125 L 7.671875 -2.890625 L 7.984375 -2.9375 L 8.25 -3.078125 L 8.5625 -3.21875 L 9.09375 -3.625 L 9.296875 -3.9375 L 9.4375 -4.1875 L 9.625 -4.453125 L 9.78125 -5.140625 L 9.890625 -6 L 9.8125 -6.734375 L 9.703125 -7.046875 L 9.59375 -7.375 L 9.46875 -7.6875 L 9.0625 -8.265625 L 8.546875 -8.65625 L 7.640625 -9.046875 L 6.8125 -9.109375 L 6.03125 -9.03125 L 5.671875 -8.953125 L 5.375 -8.796875 L 4.875 -8.453125 L 4.625 -8.234375 L 4.390625 -7.953125 L 4.25 -7.671875 L 4.046875 -7.4375 L 3.9375 -7.125 L 3.8125 -6.5 L 3.796875 -5.984375 L 3.890625 -5.125 L 4.203125 -4.171875 L 4.4375 -3.9375 L 4.609375 -3.703125 L 5.125 -3.234375 L 5.703125 -2.9375 L 6.015625 -2.890625 Z M 6.359375 -2.78125 "/></g></g></g><g fill="#737373" fill-opacity="1"><g transform="translate(54.078613, 45.503725)"><g><path d="M 1.828125 0 L 0.6875 0 L 0.6875 -5.453125 L 3.8125 -5.453125 L 3.8125 -4.5 L 1.828125 -4.5 L 1.828125 -3.09375 L 3.671875 -3.09375 L 3.671875 -2.15625 L 1.828125 -2.15625 Z M 1.828125 0 "/></g></g><g transform="translate(58.274768, 45.503725)"><g><path d="M 1.84375 -3.03125 L 2.21875 -3.03125 C 2.582031 -3.03125 2.847656 -3.09375 3.015625 -3.21875 C 3.191406 -3.34375 3.28125 -3.535156 3.28125 -3.796875 C 3.28125 -4.046875 3.191406 -4.222656 3.015625 -4.328125 C 2.835938 -4.441406 2.5625 -4.5 2.1875 -4.5 L 1.84375 -4.5 Z M 1.84375 -2.09375 L 1.84375 0 L 0.6875 0 L 0.6875 -5.453125 L 2.28125 -5.453125 C 3.019531 -5.453125 3.566406 -5.316406 3.921875 -5.046875 C 4.273438 -4.773438 4.453125 -4.367188 4.453125 -3.828125 C 4.453125 -3.503906 4.363281 -3.21875 4.1875 -2.96875 C 4.007812 -2.71875 3.757812 -2.519531 3.4375 -2.375 C 4.257812 -1.144531 4.796875 -0.351562 5.046875 0 L 3.765625 0 L 2.453125 -2.09375 Z M 1.84375 -2.09375 "/></g></g><g transform="translate(63.3221, 45.503725)"><g><path d="M 5.640625 -2.734375 C 5.640625 -1.828125 5.414062 -1.128906 4.96875 -0.640625 C 4.519531 -0.160156 3.878906 0.078125 3.046875 0.078125 C 2.203125 0.078125 1.554688 -0.160156 1.109375 -0.640625 C 0.660156 -1.128906 0.4375 -1.828125 0.4375 -2.734375 C 0.4375 -3.648438 0.660156 -4.347656 1.109375 -4.828125 C 1.566406 -5.304688 2.210938 -5.546875 3.046875 -5.546875 C 3.890625 -5.546875 4.53125 -5.300781 4.96875 -4.8125 C 5.414062 -4.332031 5.640625 -3.640625 5.640625 -2.734375 Z M 1.65625 -2.734375 C 1.65625 -2.128906 1.769531 -1.671875 2 -1.359375 C 2.226562 -1.046875 2.578125 -0.890625 3.046875 -0.890625 C 3.960938 -0.890625 4.421875 -1.503906 4.421875 -2.734375 C 4.421875 -3.960938 3.960938 -4.578125 3.046875 -4.578125 C 2.585938 -4.578125 2.238281 -4.421875 2 -4.109375 C 1.769531 -3.804688 1.65625 -3.347656 1.65625 -2.734375 Z M 1.65625 -2.734375 "/></g></g><g transform="translate(69.407272, 45.503725)"><g><path d="M 5.53125 0 L 4.0625 0 L 1.6875 -4.125 L 1.65625 -4.125 C 1.695312 -3.394531 1.71875 -2.875 1.71875 -2.5625 L 1.71875 0 L 0.6875 0 L 0.6875 -5.453125 L 2.140625 -5.453125 L 4.515625 -1.375 L 4.546875 -1.375 C 4.503906 -2.082031 4.484375 -2.582031 4.484375 -2.875 L 4.484375 -5.453125 L 5.53125 -5.453125 Z M 5.53125 0 "/></g></g><g transform="translate(75.623106, 45.503725)"><g><path d="M 2.796875 0 L 1.640625 0 L 1.640625 -4.484375 L 0.15625 -4.484375 L 0.15625 -5.453125 L 4.265625 -5.453125 L 4.265625 -4.484375 L 2.796875 -4.484375 Z M 2.796875 0 "/></g></g><g transform="translate(80.050722, 45.503725)"><g/></g><g transform="translate(82.036803, 45.503725)"><g><path d="M 3.828125 0 L 0.6875 0 L 0.6875 -5.453125 L 3.828125 -5.453125 L 3.828125 -4.5 L 1.84375 -4.5 L 1.84375 -3.3125 L 3.6875 -3.3125 L 3.6875 -2.359375 L 1.84375 -2.359375 L 1.84375 -0.953125 L 3.828125 -0.953125 Z M 3.828125 0 "/></g></g><g transform="translate(86.318822, 45.503725)"><g><path d="M 5.53125 0 L 4.0625 0 L 1.6875 -4.125 L 1.65625 -4.125 C 1.695312 -3.394531 1.71875 -2.875 1.71875 -2.5625 L 1.71875 0 L 0.6875 0 L 0.6875 -5.453125 L 2.140625 -5.453125 L 4.515625 -1.375 L 4.546875 -1.375 C 4.503906 -2.082031 4.484375 -2.582031 4.484375 -2.875 L 4.484375 -5.453125 L 5.53125 -5.453125 Z M 5.53125 0 "/></g></g><g transform="translate(92.534657, 45.503725)"><g><path d="M 5.21875 -2.78125 C 5.21875 -1.882812 4.957031 -1.195312 4.4375 -0.71875 C 3.925781 -0.238281 3.191406 0 2.234375 0 L 0.6875 0 L 0.6875 -5.453125 L 2.40625 -5.453125 C 3.289062 -5.453125 3.976562 -5.21875 4.46875 -4.75 C 4.96875 -4.28125 5.21875 -3.625 5.21875 -2.78125 Z M 4.015625 -2.75 C 4.015625 -3.914062 3.492188 -4.5 2.453125 -4.5 L 1.84375 -4.5 L 1.84375 -0.953125 L 2.34375 -0.953125 C 3.457031 -0.953125 4.015625 -1.550781 4.015625 -2.75 Z M 4.015625 -2.75 "/></g></g></g><g fill="#737373" fill-opacity="1"><g transform="translate(54.078613, 55.697943)"><g><path d="M 5.21875 -2.78125 C 5.21875 -1.882812 4.957031 -1.195312 4.4375 -0.71875 C 3.925781 -0.238281 3.191406 0 2.234375 0 L 0.6875 0 L 0.6875 -5.453125 L 2.40625 -5.453125 C 3.289062 -5.453125 3.976562 -5.21875 4.46875 -4.75 C 4.96875 -4.28125 5.21875 -3.625 5.21875 -2.78125 Z M 4.015625 -2.75 C 4.015625 -3.914062 3.492188 -4.5 2.453125 -4.5 L 1.84375 -4.5 L 1.84375 -0.953125 L 2.34375 -0.953125 C 3.457031 -0.953125 4.015625 -1.550781 4.015625 -2.75 Z M 4.015625 -2.75 "/></g></g><g transform="translate(59.738196, 55.697943)"><g><path d="M 3.828125 0 L 0.6875 0 L 0.6875 -5.453125 L 3.828125 -5.453125 L 3.828125 -4.5 L 1.84375 -4.5 L 1.84375 -3.3125 L 3.6875 -3.3125 L 3.6875 -2.359375 L 1.84375 -2.359375 L 1.84375 -0.953125 L 3.828125 -0.953125 Z M 3.828125 0 "/></g></g><g transform="translate(64.020215, 55.697943)"><g><path d="M 3.796875 -5.453125 L 4.96875 -5.453125 L 3.109375 0 L 1.84375 0 L 0 -5.453125 L 1.171875 -5.453125 L 2.1875 -2.203125 C 2.25 -2.015625 2.3125 -1.789062 2.375 -1.53125 C 2.4375 -1.28125 2.472656 -1.101562 2.484375 -1 C 2.515625 -1.226562 2.609375 -1.628906 2.765625 -2.203125 Z M 3.796875 -5.453125 "/></g></g><g transform="translate(68.98915, 55.697943)"><g><path d="M 3.828125 0 L 0.6875 0 L 0.6875 -5.453125 L 3.828125 -5.453125 L 3.828125 -4.5 L 1.84375 -4.5 L 1.84375 -3.3125 L 3.6875 -3.3125 L 3.6875 -2.359375 L 1.84375 -2.359375 L 1.84375 -0.953125 L 3.828125 -0.953125 Z M 3.828125 0 "/></g></g><g transform="translate(73.271169, 55.697943)"><g><path d="M 0.6875 0 L 0.6875 -5.453125 L 1.84375 -5.453125 L 1.84375 -0.953125 L 4.0625 -0.953125 L 4.0625 0 Z M 0.6875 0 "/></g></g><g transform="translate(77.590521, 55.697943)"><g><path d="M 5.640625 -2.734375 C 5.640625 -1.828125 5.414062 -1.128906 4.96875 -0.640625 C 4.519531 -0.160156 3.878906 0.078125 3.046875 0.078125 C 2.203125 0.078125 1.554688 -0.160156 1.109375 -0.640625 C 0.660156 -1.128906 0.4375 -1.828125 0.4375 -2.734375 C 0.4375 -3.648438 0.660156 -4.347656 1.109375 -4.828125 C 1.566406 -5.304688 2.210938 -5.546875 3.046875 -5.546875 C 3.890625 -5.546875 4.53125 -5.300781 4.96875 -4.8125 C 5.414062 -4.332031 5.640625 -3.640625 5.640625 -2.734375 Z M 1.65625 -2.734375 C 1.65625 -2.128906 1.769531 -1.671875 2 -1.359375 C 2.226562 -1.046875 2.578125 -0.890625 3.046875 -0.890625 C 3.960938 -0.890625 4.421875 -1.503906 4.421875 -2.734375 C 4.421875 -3.960938 3.960938 -4.578125 3.046875 -4.578125 C 2.585938 -4.578125 2.238281 -4.421875 2 -4.109375 C 1.769531 -3.804688 1.65625 -3.347656 1.65625 -2.734375 Z M 1.65625 -2.734375 "/></g></g><g transform="translate(83.675692, 55.697943)"><g><path d="M 1.84375 -2.890625 L 2.21875 -2.890625 C 2.570312 -2.890625 2.835938 -2.957031 3.015625 -3.09375 C 3.191406 -3.238281 3.28125 -3.445312 3.28125 -3.71875 C 3.28125 -3.988281 3.207031 -4.1875 3.0625 -4.3125 C 2.914062 -4.4375 2.6875 -4.5 2.375 -4.5 L 1.84375 -4.5 Z M 4.453125 -3.75 C 4.453125 -3.164062 4.269531 -2.71875 3.90625 -2.40625 C 3.539062 -2.09375 3.019531 -1.9375 2.34375 -1.9375 L 1.84375 -1.9375 L 1.84375 0 L 0.6875 0 L 0.6875 -5.453125 L 2.421875 -5.453125 C 3.085938 -5.453125 3.59375 -5.304688 3.9375 -5.015625 C 4.28125 -4.734375 4.453125 -4.3125 4.453125 -3.75 Z M 4.453125 -3.75 "/></g></g><g transform="translate(88.476631, 55.697943)"><g><path d="M 3.828125 0 L 0.6875 0 L 0.6875 -5.453125 L 3.828125 -5.453125 L 3.828125 -4.5 L 1.84375 -4.5 L 1.84375 -3.3125 L 3.6875 -3.3125 L 3.6875 -2.359375 L 1.84375 -2.359375 L 1.84375 -0.953125 L 3.828125 -0.953125 Z M 3.828125 0 "/></g></g><g transform="translate(92.758651, 55.697943)"><g><path d="M 1.84375 -3.03125 L 2.21875 -3.03125 C 2.582031 -3.03125 2.847656 -3.09375 3.015625 -3.21875 C 3.191406 -3.34375 3.28125 -3.535156 3.28125 -3.796875 C 3.28125 -4.046875 3.191406 -4.222656 3.015625 -4.328125 C 2.835938 -4.441406 2.5625 -4.5 2.1875 -4.5 L 1.84375 -4.5 Z M 1.84375 -2.09375 L 1.84375 0 L 0.6875 0 L 0.6875 -5.453125 L 2.28125 -5.453125 C 3.019531 -5.453125 3.566406 -5.316406 3.921875 -5.046875 C 4.273438 -4.773438 4.453125 -4.367188 4.453125 -3.828125 C 4.453125 -3.503906 4.363281 -3.21875 4.1875 -2.96875 C 4.007812 -2.71875 3.757812 -2.519531 3.4375 -2.375 C 4.257812 -1.144531 4.796875 -0.351562 5.046875 0 L 3.765625 0 L 2.453125 -2.09375 Z M 1.84375 -2.09375 "/></g></g></g></svg>