<?xml version="1.0" standalone="no"?>
<!DOCTYPE svg PUBLIC "-//W3C//DTD SVG 20010904//EN"
 "http://www.w3.org/TR/2001/REC-SVG-20010904/DTD/svg10.dtd">
<svg version="1.0" xmlns="http://www.w3.org/2000/svg"
 width="100.000000pt" height="100.000000pt" viewBox="0 0 100.000000 100.000000"
 preserveAspectRatio="xMidYMid meet">

<g transform="translate(0.000000,100.000000) scale(0.100000,-0.100000)"
fill="#000000" stroke="none">
<path d="M435 946 c-42 -18 -83 -69 -91 -112 -9 -51 2 -92 41 -151 24 -36 35
-64 35 -88 0 -28 7 -43 32 -66 41 -36 55 -36 96 0 25 23 32 38 32 66 0 24 12
53 38 92 32 49 37 64 37 114 0 62 -17 94 -67 132 -33 25 -113 32 -153 13z
m149 -65 c26 -26 31 -39 31 -79 0 -40 -7 -58 -39 -105 -36 -52 -43 -57 -76
-57 -33 0 -40 5 -76 57 -32 46 -39 65 -39 104 0 50 26 91 70 110 37 16 96 3
129 -30z m-46 -298 c-5 -25 -71 -25 -76 0 -3 14 4 17 38 17 34 0 41 -3 38 -17z"/>
<path d="M230 533 c-39 -12 -63 -29 -75 -53 -17 -32 -17 -157 -1 -168 13 -8
36 -57 36 -77 0 -8 -27 -28 -60 -45 -44 -22 -65 -40 -77 -64 -33 -70 -54 -66
449 -64 449 3 453 3 456 24 5 33 -37 75 -105 106 -35 16 -63 35 -63 43 0 20
23 69 36 77 7 5 12 36 12 77 1 55 -3 75 -19 95 -11 14 -26 26 -34 26 -7 0 -19
7 -26 16 -10 12 -23 14 -52 10 -49 -8 -82 -30 -96 -64 -14 -36 -12 -150 3
-160 13 -8 36 -57 36 -77 0 -8 -27 -28 -60 -45 -32 -16 -65 -40 -71 -52 -17
-33 -17 -33 -41 -3 -12 15 -50 41 -85 57 -35 16 -63 35 -63 43 0 20 23 69 36
77 7 5 12 36 12 77 1 55 -3 75 -19 95 -11 14 -26 26 -34 26 -7 0 -18 7 -25 15
-12 15 -41 18 -70 8z m61 -50 c19 -9 37 -21 41 -27 14 -21 1 -113 -20 -150
-44 -75 -30 -108 64 -151 41 -19 74 -39 74 -44 0 -7 -60 -11 -181 -11 -203 0
-212 4 -115 56 32 17 62 37 67 45 15 24 10 66 -13 105 -24 40 -33 126 -17 156
9 16 39 35 60 37 3 1 21 -7 40 -16z m460 0 c19 -9 37 -21 41 -27 14 -21 1
-113 -20 -150 -44 -75 -30 -108 64 -151 41 -19 74 -39 74 -44 0 -7 -60 -11
-181 -11 -203 0 -212 4 -115 56 32 17 62 37 67 45 15 24 10 66 -13 105 -24 40
-33 126 -17 156 9 16 39 35 60 37 3 1 21 -7 40 -16z"/>
</g>
</svg>
