<?xml version="1.0" standalone="no"?>
<!DOCTYPE svg PUBLIC "-//W3C//DTD SVG 20010904//EN"
 "http://www.w3.org/TR/2001/REC-SVG-20010904/DTD/svg10.dtd">
<svg version="1.0" xmlns="http://www.w3.org/2000/svg"
 width="100.000000pt" height="100.000000pt" viewBox="0 0 100.000000 100.000000"
 preserveAspectRatio="xMidYMid meet">
<metadata>
Created by potrace 1.10, written by Peter Selinger 2001-2011
</metadata>
<g transform="translate(0.000000,100.000000) scale(0.100000,-0.100000)"
fill="#000000" stroke="none">
<path d="M126 869 c3 -6 61 -90 128 -187 67 -97 130 -189 140 -204 l18 -27
-129 -148 c-174 -201 -161 -183 -125 -183 27 0 45 17 153 143 67 78 124 143
128 144 3 1 18 -17 33 -40 14 -23 59 -88 98 -144 l71 -103 120 0 120 0 -78
112 c-42 62 -111 163 -153 224 l-76 110 103 120 c57 65 117 136 134 157 l31
37 -31 0 c-26 0 -45 -17 -147 -136 -64 -74 -120 -131 -124 -127 -4 4 -46 65
-94 136 l-87 127 -120 0 c-84 0 -118 -3 -113 -11z m395 -296 c101 -148 205
-298 231 -336 26 -37 48 -69 48 -72 0 -3 -31 -5 -69 -5 l-70 0 -207 303 c-114
166 -221 319 -237 340 l-29 37 75 0 75 0 183 -267z"/>
</g>
</svg>
